<svg width="211" height="154" viewBox="0 0 211 154" fill="none" xmlns="http://www.w3.org/2000/svg">
<path d="M23.2402 38.861C22.0863 38.861 21.1797 38.1993 21.1797 37.3571V15.6106C21.1797 14.7684 22.0863 14.1067 23.2402 14.1067H53.0357C54.1896 14.1067 55.0963 14.7684 55.0963 15.6106C55.0963 16.4528 54.1896 17.1145 53.0357 17.1145H25.3008V37.3571C25.3008 38.1692 24.3529 38.861 23.2402 38.861ZM23.8996 106.807C22.7869 106.807 21.8391 106.146 21.8391 105.334L21.3857 83.5872C21.3857 82.745 22.2924 82.0833 23.4051 82.0532H23.4463C24.559 82.0532 25.5068 82.7149 25.5068 83.527L25.9602 103.77L53.6951 103.439H53.7363C54.849 103.439 55.7969 104.1 55.7969 104.913C55.7969 105.755 54.8902 106.416 53.7775 106.447L23.8996 106.807ZM99.6041 128.373L93.6697 147.834L86.293 142.45L64.1215 147.834L85.0978 122.298C88.9717 125.245 93.9994 127.411 99.6041 128.373ZM145.472 147.834L123.3 142.45L115.924 147.834L110.113 128.765C116.006 128.223 121.405 126.418 125.691 123.741L145.472 147.834ZM189.815 106.326H160.019C158.865 106.326 157.959 105.665 157.959 104.822C157.959 103.98 158.865 103.318 160.019 103.318H187.754V83.0758C187.754 82.2337 188.661 81.5719 189.815 81.5719C190.969 81.5719 191.875 82.2337 191.875 83.0758V104.822C191.875 105.634 190.969 106.326 189.815 106.326ZM190.062 38.8309C188.949 38.8309 188.002 38.1692 188.002 37.3571L187.548 17.1145L159.854 17.4454H159.813C158.701 17.4454 157.753 16.7836 157.753 15.9715C157.753 15.1293 158.659 14.4676 159.772 14.4375L189.568 14.1067C190.68 14.1067 191.628 14.7684 191.669 15.5805L192.123 37.327C192.123 38.1391 191.216 38.8008 190.062 38.8309ZM171.352 41.5379H45.659C44.5051 41.5379 43.5984 40.8762 43.5984 40.034C43.5984 39.1918 44.5051 38.5301 45.659 38.5301H171.352C172.506 38.5301 173.413 39.1918 173.413 40.034C173.413 40.8762 172.465 41.5379 171.352 41.5379Z" fill="#5C77FF"/>
<path d="M160.227 57.75H53.0371C51.8832 57.75 50.9766 57.0883 50.9766 56.2461C50.9766 55.4039 51.8832 54.7422 53.0371 54.7422H160.268C161.422 54.7422 162.329 55.4039 162.329 56.2461C162.329 57.0883 161.381 57.75 160.227 57.75Z" fill="#92AAFF"/>
<path d="M204.307 3.38452H10.5685C9.42762 3.38452 8.53125 4.04511 8.53125 4.88586V115.324C8.53125 116.165 9.42762 116.826 10.5685 116.826H78.9778C80.4445 119.168 82.4003 121.33 84.8856 123.221C87.7377 125.413 91.1195 127.155 94.8272 128.356C96.5792 128.926 98.3719 129.377 100.246 129.707C102.569 130.127 105.013 130.308 107.458 130.308C108.762 130.308 110.065 130.248 111.329 130.127C117.44 129.587 123.144 127.725 127.83 124.753C131.293 122.591 134.064 119.858 135.938 116.826H204.307C205.447 116.826 206.344 116.165 206.344 115.324V4.88586C206.344 4.04511 205.447 3.38452 204.307 3.38452ZM134.593 108.298C134.43 110.55 133.779 112.712 132.638 114.784C131.008 117.756 128.4 120.399 125.1 122.501C121.026 125.083 116.055 126.674 110.758 127.155C109.699 127.245 108.558 127.305 107.417 127.305C105.461 127.305 103.546 127.155 101.672 126.855C101.509 126.825 101.346 126.794 101.143 126.764C96.0495 125.864 91.4454 123.942 87.7785 121.119C85.3746 119.258 83.4596 117.126 82.1558 114.754C80.852 112.352 80.1593 109.829 80.1593 107.247C80.1593 97.6085 89.449 89.5313 101.754 87.6396C103.546 87.3393 105.461 87.2192 107.376 87.2192C122.37 87.2192 134.593 96.1972 134.593 107.277C134.634 107.607 134.634 107.938 134.593 108.298ZM202.269 113.823H137.446C137.446 113.793 137.446 113.763 137.486 113.763C137.608 113.463 137.731 113.162 137.812 112.862C137.853 112.772 137.853 112.682 137.894 112.562C137.975 112.322 138.057 112.081 138.097 111.841C138.138 111.751 138.138 111.661 138.179 111.571C138.26 111.241 138.342 110.91 138.423 110.58V110.55C138.505 110.22 138.546 109.919 138.586 109.589C138.586 109.499 138.627 109.379 138.627 109.289C138.668 109.049 138.668 108.808 138.709 108.538C138.709 108.448 138.709 108.328 138.749 108.238C138.749 107.908 138.79 107.577 138.79 107.217C138.79 94.5157 124.774 84.1565 107.499 84.1565C103.058 84.1565 98.8609 84.8471 95.0309 86.0782C83.9893 89.6214 76.2072 97.7586 76.2072 107.217C76.2072 107.547 76.2072 107.878 76.2479 108.238C76.2479 108.328 76.2479 108.448 76.2887 108.538C76.3294 108.778 76.3294 109.019 76.3701 109.259C76.3701 109.349 76.4109 109.469 76.4109 109.559C76.4516 109.859 76.4924 110.19 76.5739 110.49C76.5739 110.52 76.5739 110.52 76.5739 110.55C76.6553 110.88 76.7368 111.211 76.8183 111.511C76.8591 111.601 76.8591 111.691 76.8998 111.811C76.9813 112.051 77.022 112.292 77.1035 112.502C77.1443 112.592 77.185 112.712 77.185 112.802C77.2665 113.102 77.3887 113.373 77.511 113.673C77.511 113.703 77.5517 113.733 77.5517 113.763H12.6057V6.3872H202.269V113.823Z" fill="#354B87"/>
<path d="M106.407 93.8738L111.847 101.905L124.004 103.198L115.227 109.454L117.287 118.267L106.407 114.116L95.5689 118.267L97.6295 109.454L88.8516 103.198L101.009 101.905L106.407 93.8738Z" fill="#5C77FF"/>
<path opacity="0.3" d="M149.351 74.293H61.6543C60.5004 74.293 59.5938 73.6312 59.5938 72.7891C59.5938 71.9469 60.5004 71.2852 61.6543 71.2852H149.351C150.505 71.2852 151.412 71.9469 151.412 72.7891C151.412 73.6312 150.505 74.293 149.351 74.293Z" fill="#485EFF"/>
<path opacity="0.3" d="M133.938 107.349C133.938 107.71 133.937 108.041 133.896 108.402C133.731 110.657 133.072 112.823 131.918 114.898C130.27 117.876 127.632 120.523 124.294 122.629C120.173 125.215 115.145 126.809 109.788 127.291C108.716 127.381 107.563 127.441 106.409 127.441C104.43 127.441 102.494 127.291 100.598 126.99C110.983 123.681 118.236 116.132 118.236 107.319C118.236 98.566 111.065 91.0465 100.763 87.7078C102.576 87.407 104.513 87.2867 106.45 87.2867C121.615 87.2566 133.938 96.2801 133.938 107.349ZM203.543 77L202.348 6.31641H10.5107L8.65625 73.9922C8.65625 73.9922 19.3711 10.377 106.615 10.377C197.402 10.377 203.543 77 203.543 77Z" fill="#485EFF"/>
</svg>
