<svg width="187" height="64" viewBox="0 0 187 64" fill="none" xmlns="http://www.w3.org/2000/svg">
<g clip-path="url(#clip0_10905_2309)">
<path d="M64.0186 33.4106C64.0246 30.8128 63.2275 28.2768 61.7358 26.1498C60.2445 24.0229 58.1317 22.4091 55.6874 21.5296C55.91 20.3959 56.022 19.2432 56.0223 18.0878C56.0246 14.2634 54.8138 10.5368 52.5645 7.44379C50.3152 4.3508 47.1431 2.05072 43.504 0.874264C39.8653 -0.302196 35.9469 -0.294444 32.3126 0.896407C28.6783 2.08726 25.5152 4.39988 23.2782 7.50172C21.6278 6.2228 19.6055 5.51653 17.5177 5.49C15.4299 5.46347 13.3903 6.11806 11.7079 7.3546C10.0255 8.59118 8.79193 10.3424 8.19401 12.3429C7.59613 14.3434 7.66649 16.4843 8.39446 18.4413C5.94434 19.3343 3.82649 20.9563 2.32574 23.089C0.825001 25.2217 0.0133782 27.7628 4.2899e-05 30.3706C-0.00675572 32.9773 0.794683 35.522 2.29402 37.6543C3.79334 39.7867 5.91684 41.402 8.37213 42.2775C8.15479 43.4109 8.04391 44.5618 8.04097 45.7157C8.03732 49.5356 9.24692 53.258 11.4953 56.3464C13.7438 59.4344 16.9148 61.7287 20.5513 62.8986C24.1878 64.0681 28.1018 64.0528 31.729 62.8543C35.3562 61.6561 38.509 59.3369 40.733 56.231C42.3788 57.5133 44.3974 58.2236 46.4834 58.2548C48.5693 58.2861 50.6084 57.636 52.2914 56.4037C53.9747 55.1709 55.2101 53.4232 55.8099 51.4254C56.4101 49.4273 56.3423 47.2885 55.6167 45.3324C58.0681 44.4409 60.1875 42.8193 61.6889 40.6865C63.1907 38.5536 64.0022 36.0116 64.0149 33.4031" fill="white"/>
<path d="M25.1646 27.4643L39.1739 33.8606L53.3134 21.4773C53.5169 20.4555 53.6182 19.4159 53.6148 18.374C53.6141 15.001 52.5339 11.7168 50.532 9.00188C48.5305 6.28698 45.7127 4.28396 42.4903 3.28593C39.2684 2.28789 35.8116 2.34723 32.6258 3.45526C29.44 4.56329 26.6923 6.66182 24.785 9.44381L22.4297 21.6261L25.1646 27.4643Z" fill="#FEC514"/>
<path d="M10.6682 42.2996C10.4617 43.3373 10.3582 44.393 10.3594 45.4512C10.3595 48.8383 11.4452 52.1362 13.4574 54.8607C15.4695 57.5855 18.302 59.5933 21.5391 60.5898C24.7763 61.5863 28.2477 61.5189 31.4437 60.3974C34.6398 59.2763 37.3923 57.1598 39.297 54.3591L41.63 42.2028L38.5156 36.2494L24.4543 29.8419L10.6682 42.2996Z" fill="#00BFB3"/>
<path d="M10.58 18.0577L20.18 20.3238L22.2823 9.40656C20.9766 8.41646 19.3853 7.87596 17.7466 7.86599C16.108 7.85598 14.5102 8.37709 13.1925 9.35123C11.8748 10.3253 10.9081 11.7001 10.4371 13.2696C9.96617 14.8392 10.0163 16.519 10.58 18.0577Z" fill="#F04E98"/>
<path d="M9.751 20.3424C7.64466 21.0532 5.81217 22.4027 4.50843 24.2033C3.20468 26.0039 2.49446 28.166 2.47657 30.3889C2.47505 32.5373 3.12748 34.6353 4.34713 36.404C5.56674 38.1727 7.29582 39.5283 9.30449 40.2903L22.7743 28.1154L20.2998 22.8317L9.751 20.3424Z" fill="#1BA9F5"/>
<path d="M41.7578 54.3591C43.0616 55.3441 44.649 55.8814 46.2828 55.8899C47.9167 55.8985 49.5096 55.3787 50.8235 54.4075C52.1377 53.4363 53.1022 52.0659 53.5736 50.5013C54.0447 48.937 53.9971 47.2618 53.4378 45.7266L43.8453 43.494L41.7578 54.3591Z" fill="#93C90E"/>
<path d="M43.7081 40.9675L54.2681 43.4345C56.3756 42.7257 58.2093 41.3768 59.5135 39.5755C60.8177 37.7746 61.5269 35.6115 61.5425 33.388C61.5407 31.2442 60.8869 29.1515 59.6683 27.3878C58.4493 25.6241 56.7232 24.2726 54.7183 23.5127L40.9062 35.6057L43.7081 40.9675Z" fill="#0077CC"/>
<path d="M89.5134 44.8L90.7934 44.6698L90.8827 47.2744C88.0343 47.7046 85.1603 47.9408 82.2799 47.9814C79.1048 47.9814 76.8548 47.0623 75.5301 45.2242C74.2055 43.3861 73.5443 40.5258 73.5469 36.6437C73.5469 28.9116 76.6204 25.0444 82.7673 25.0419C85.7441 25.0419 87.9644 25.8729 89.4278 27.5349C90.8916 29.1969 91.6258 31.8016 91.6306 35.3488L91.4557 37.8642H76.8994C76.8994 40.3051 77.3411 42.1135 78.2241 43.2893C79.1074 44.4651 80.6427 45.053 82.8306 45.053C85.0237 45.0605 87.2511 44.976 89.5134 44.8ZM88.3227 35.2298C88.3227 32.5234 87.89 30.6121 87.0241 29.4958C86.1582 28.3795 84.7469 27.8202 82.7897 27.8177C80.8325 27.8177 79.3616 28.4056 78.3767 29.5814C77.3921 30.7572 76.8846 32.64 76.8548 35.2298H88.3227Z" fill="white"/>
<path d="M96.2422 47.8066V18.7833H99.5501V47.8066H96.2422Z" fill="white"/>
<path d="M120.381 32.1415V43.267C120.381 44.3833 123.127 44.3238 123.127 44.3238L122.959 47.2484C120.634 47.2484 118.71 47.4419 117.557 46.3219C115.059 47.4315 112.353 47.996 109.62 47.9777C107.593 47.9777 106.049 47.4036 104.987 46.255C103.926 45.1063 103.396 43.4557 103.398 41.3024C103.398 39.1543 103.943 37.5729 105.032 36.5582C106.121 35.5437 107.826 34.9235 110.148 34.6977L117.073 34.0391V32.1415C117.073 30.6531 116.75 29.579 116.105 28.9191C115.752 28.5874 115.335 28.3307 114.88 28.1644C114.424 27.9982 113.94 27.9258 113.456 27.9517H104.764V25.0382H113.237C115.737 25.0382 117.553 25.6125 118.684 26.761C119.815 27.9095 120.381 29.703 120.381 32.1415ZM106.788 41.1387C106.788 43.8449 107.904 45.1982 110.137 45.1982C112.151 45.196 114.15 44.8525 116.05 44.1824L117.062 43.8289V36.5508L110.546 37.1684C109.222 37.2875 108.265 37.6696 107.678 38.3145C107.09 38.9593 106.793 39.9007 106.788 41.1387Z" fill="white"/>
<path d="M133.295 27.9963C130.088 27.9963 128.484 29.1126 128.484 31.3451C128.484 32.3771 128.856 33.1051 129.601 33.5293C130.345 33.9535 132.021 34.3951 134.627 34.854C137.247 35.3129 139.1 35.9529 140.187 36.774C141.273 37.5952 141.818 39.1379 141.82 41.4028C141.82 43.67 141.092 45.3321 139.636 46.3888C138.18 47.4456 136.055 47.9751 133.262 47.9777C131.439 47.9777 125.351 47.3005 125.351 47.3005L125.53 44.4354C129.027 44.7702 131.554 45.0195 133.262 45.0195C134.97 45.0195 136.268 44.7479 137.165 44.2047C138.062 43.6614 138.508 42.7498 138.508 41.4698C138.508 40.1898 138.136 39.3228 137.362 38.8651C136.588 38.4074 134.921 37.9758 132.335 37.5628C129.749 37.1498 127.907 36.547 126.821 35.7544C125.734 34.9619 125.188 33.4884 125.188 31.3414C125.188 29.1944 125.932 27.6205 127.461 26.5786C128.99 25.5368 130.866 25.0344 133.128 25.0344C134.921 25.0344 141.147 25.4921 141.147 25.4921V28.3758C137.861 28.2307 135.174 27.9963 133.295 27.9963Z" fill="white"/>
<path d="M157.77 28.3461H150.756V38.8912C150.756 41.4188 150.94 43.0798 151.307 43.8735C151.679 44.6698 152.55 45.0642 153.93 45.0642L157.856 44.8L158.079 47.5349C156.593 47.8099 155.088 47.9725 153.577 48.0223C151.285 48.0223 149.697 47.4631 148.814 46.3442C147.931 45.2253 147.491 43.0932 147.493 39.9479V28.3461H144.375V25.481H147.508V18.7312H150.771V25.481H157.77V28.3461Z" fill="white"/>
<path d="M162.367 22.6642V18.8242H165.675V22.6642H162.367ZM162.367 47.8065V25.481H165.675V47.8065H162.367Z" fill="white"/>
<path d="M180.004 25.0382C181.656 25.1087 183.302 25.2865 184.931 25.5703L185.988 25.7005L185.857 28.3908C184.129 28.1718 182.39 28.0401 180.648 27.9963C178.148 27.9963 176.45 28.5917 175.554 29.7824C174.658 30.9731 174.21 33.1784 174.207 36.3982C174.207 39.6231 174.626 41.8654 175.465 43.1257C176.303 44.3859 178.052 45.0185 180.711 45.0233L185.921 44.6289L186.055 47.3638C184.027 47.7072 181.978 47.9137 179.922 47.9815C176.484 47.9815 174.11 47.0985 172.801 45.3322C171.491 43.5658 170.836 40.5891 170.836 36.4019C170.836 32.2122 171.542 29.2714 172.953 27.5796C174.364 25.8878 176.715 25.0407 180.004 25.0382Z" fill="white"/>
</g>
<defs>
<clipPath id="clip0_10905_2309">
<rect width="186.047" height="64" fill="white"/>
</clipPath>
</defs>
</svg>
