<svg width="509" height="652" viewBox="0 0 509 652" fill="none" xmlns="http://www.w3.org/2000/svg">
<path d="M246.261 652C382.268 652 492.522 644.471 492.522 635.184C492.522 625.897 382.268 618.368 246.261 618.368C110.255 618.368 0 625.897 0 635.184C0 644.471 110.255 652 246.261 652Z" fill="#CED3E6"/>
<path d="M230.902 166.887L255.777 269.006L246.902 257.535C250.183 259.501 253.991 261.009 258.191 262.058C262.391 263.127 266.981 263.738 271.776 264.005C276.571 264.292 281.569 264.234 286.687 264.005C291.805 263.757 297.024 263.337 302.329 262.822H302.363C310.184 262.077 317.07 268.586 317.733 277.367C318.362 285.746 313.074 293.152 305.815 294.488C300.34 295.462 294.78 296.397 289.084 297.142C283.371 297.886 277.523 298.44 271.47 298.592C265.417 298.745 259.143 298.478 252.648 297.428C246.17 296.378 239.455 294.469 232.892 291.301C228.692 289.258 225.7 285.403 224.34 280.879L224.016 279.81L194.177 179.39C190.828 168.109 196.252 155.893 206.317 152.132C216.365 148.372 227.247 154.461 230.596 165.761C230.698 166.105 230.817 166.524 230.902 166.887Z" fill="#EA9B7A"/>
<path d="M240.477 537.073C240.103 537.073 239.729 536.997 239.355 536.844L109.049 484.105C107.349 483.418 106.465 481.299 107.077 479.39C107.689 477.482 109.576 476.47 111.276 477.176L241.582 529.915C243.282 530.603 244.183 532.721 243.554 534.63C243.095 536.138 241.82 537.073 240.477 537.073Z" fill="#C77E2E"/>
<path d="M104.757 537.073C103.414 537.073 102.156 536.137 101.663 534.629C101.051 532.721 101.935 530.602 103.635 529.896L235.488 476.278C237.188 475.591 239.075 476.584 239.704 478.493C240.317 480.401 239.432 482.52 237.732 483.226L105.879 536.844C105.505 536.996 105.131 537.073 104.757 537.073Z" fill="#C77E2E"/>
<path d="M252.034 631.329C249.262 631.329 246.848 629.02 246.457 625.851L222.926 428.542H124.432L101.257 625.851C100.849 629.306 98.027 631.749 94.9495 631.291C91.8721 630.833 89.6958 627.665 90.1039 624.21L113.924 421.441C114.298 418.292 116.678 415.944 119.501 415.944H227.856C230.679 415.944 233.059 418.292 233.433 421.422L257.627 624.191C258.036 627.645 255.876 630.833 252.799 631.291C252.527 631.31 252.289 631.329 252.034 631.329Z" fill="#FAAF3A"/>
<path d="M196.519 422.242H126.146C103.856 422.242 79.9848 408.537 76.5503 383.818C71.9767 350.739 70.8376 318.729 72.1128 289.334C73.558 256.103 87.7039 225.181 110.963 204.566C110.963 204.566 125.024 273.339 107.341 368.262C114.108 404.299 196.519 422.242 196.519 422.242Z" fill="#FAAF3A"/>
<path d="M181.845 18.8999C181.845 18.8999 173.48 -3.73816 151.326 0.537479C135.854 3.51516 129.257 25.1606 130.158 58.6022C131.484 107.257 116.828 136.575 116.828 136.575L136.279 141.538C136.296 141.519 185.823 58.106 181.845 18.8999Z" fill="#39393B"/>
<path d="M359.322 546.79H327.884C327.884 546.79 320.607 507.622 318.176 485.671C315.728 463.701 314.47 411.649 314.47 411.649C314.47 411.649 289.425 420.792 236.99 417.337C120.813 409.721 164.866 313.901 164.866 313.901C168.794 319.99 192.835 315.771 209.276 318.673C259.722 324.113 303.452 346.331 329.704 359.043C336.028 362.097 341.639 365.342 346.57 368.759C352.895 373.13 356.856 386.434 359.254 403.899C366.412 456.41 359.322 546.79 359.322 546.79Z" fill="#39393B"/>
<path d="M331.786 527.912C331.259 527.912 330.8 527.492 330.681 526.9C326.141 501.704 324.628 470.343 323.404 445.148C322.384 424.247 321.432 404.51 319.034 402.143C317.096 400.215 309.054 401.723 298.887 403.613C278.637 407.392 248.033 413.08 214.3 404.281C195.921 399.471 182.404 389.45 174.141 374.485C159.876 348.678 166.388 316.668 166.456 316.344C166.592 315.657 167.204 315.237 167.816 315.409C168.428 315.561 168.802 316.248 168.649 316.936C168.581 317.241 162.307 348.259 176.079 373.168C184.019 387.541 197.06 397.18 214.827 401.819C248.135 410.523 278.467 404.873 298.546 401.131C310.567 398.898 317.827 397.543 320.564 400.253C323.523 403.193 324.356 417.623 325.682 445.014C326.906 470.133 328.42 501.38 332.925 526.404C333.044 527.091 332.653 527.759 332.041 527.893C331.922 527.912 331.854 527.912 331.786 527.912Z" fill="#585859"/>
<path d="M359.915 528.578H359.898L324.942 527.738C324.312 527.719 323.819 527.147 323.836 526.44C323.853 525.734 324.363 525.181 324.993 525.2L359.949 526.04C360.578 526.059 361.071 526.631 361.054 527.338C361.037 528.025 360.527 528.578 359.915 528.578Z" fill="#585859"/>
<path d="M358.427 591.991H336.239L331.971 562.787L329.625 546.792H357.186L357.628 562.787L358.427 591.991Z" fill="#EA9B7A"/>
<path d="M358.448 591.988H336.26L333.08 570.247L331.992 562.784H357.649L357.87 570.514L358.448 591.988Z" fill="#FAAF3A"/>
<path d="M357.87 570.514L333.08 570.247L331.992 562.784H357.649L357.87 570.514Z" fill="#C77E2E"/>
<path d="M413.215 631.328H329.309C328.68 630.049 328.339 628.255 328.203 626.098C327.676 618.12 329.938 605.407 331.043 597.39C331.179 596.455 331.298 595.577 331.383 594.794C331.536 593.458 331.638 592.332 331.638 591.511C331.638 584.964 336.79 586.09 336.79 586.09C345.274 595.443 354.897 581.414 360.508 586.014C360.508 586.014 360.729 586.205 361.256 586.644C361.732 587.064 362.446 587.713 363.432 588.648C364.86 589.984 366.867 591.931 369.587 594.68C376.252 601.418 387.575 605.846 397.216 610.37C398.44 610.943 399.579 611.534 400.65 612.107C401.449 612.546 402.214 612.985 402.929 613.405C410.818 618.177 413.317 622.758 413.895 626.079C414.456 629.286 413.215 631.328 413.215 631.328Z" fill="#0875F7"/>
<path d="M402.905 613.423C400.745 615.351 395.934 619.226 392.074 619.226C391.904 619.226 391.734 619.226 391.564 619.207C388.844 618.959 378.846 613.442 370.702 608.422C366.044 605.54 361.776 602.715 358.716 600.443C353.7 596.721 352.816 595.309 352.629 594.316C351.898 590.594 357.372 588.017 361.215 586.662C361.691 587.082 362.405 587.731 363.391 588.666C358.631 590.117 354.703 592.408 354.89 593.725C355.366 594.832 360.331 599.069 372.198 606.38C381.261 611.953 389.847 616.439 391.751 616.63C394.335 616.859 398.127 614.225 400.609 612.144C401.425 612.564 402.19 613.003 402.905 613.423Z" fill="#084FC7"/>
<path d="M413.191 631.329H329.285C328.656 630.05 328.316 628.256 328.18 626.099H413.888C414.432 629.287 413.191 631.329 413.191 631.329Z" fill="#084FC7"/>
<path d="M337.804 631.331H335.304C337.787 628.143 340.116 623.238 339.81 616.251C339.402 606.937 334.437 600.676 330.969 597.393C331.105 596.458 331.224 595.579 331.309 594.797C335.032 597.985 341.306 604.99 341.799 616.137C342.122 622.818 340.167 627.8 337.804 631.331Z" fill="#084FC7"/>
<path d="M368.119 600.254C367.507 600.254 366.929 599.777 366.776 599.07C366.589 598.231 367.048 597.391 367.779 597.181L373.016 595.711C373.764 595.501 374.512 596.016 374.699 596.837C374.886 597.677 374.427 598.517 373.696 598.727L368.459 600.197C368.34 600.235 368.221 600.254 368.119 600.254Z" fill="white"/>
<path d="M362.916 595.37C362.304 595.37 361.726 594.892 361.573 594.186C361.386 593.346 361.845 592.506 362.576 592.296L367.813 590.827C368.561 590.617 369.309 591.132 369.496 591.953C369.683 592.793 369.224 593.633 368.493 593.823L363.256 595.293C363.137 595.351 363.018 595.37 362.916 595.37Z" fill="white"/>
<path d="M373.416 603.67C372.804 603.67 372.226 603.193 372.073 602.486C371.886 601.647 372.345 600.807 373.076 600.616L378.313 599.146C379.061 598.936 379.809 599.451 379.996 600.272C380.183 601.112 379.724 601.952 378.993 602.162L373.756 603.632C373.637 603.67 373.535 603.67 373.416 603.67Z" fill="white"/>
<path d="M378.635 606.972C378.006 606.972 377.445 606.494 377.292 605.788C377.105 604.948 377.564 604.108 378.295 603.899L383.532 602.429C384.28 602.219 385.028 602.734 385.215 603.555C385.402 604.395 384.943 605.235 384.212 605.426L378.975 606.895C378.873 606.953 378.754 606.972 378.635 606.972Z" fill="white"/>
<path d="M384.354 610.009C383.742 610.009 383.164 609.532 383.011 608.825C382.824 607.985 383.283 607.146 384.014 606.955L389.25 605.485C389.999 605.275 390.747 605.79 390.934 606.611C391.121 607.451 390.662 608.291 389.931 608.501L384.694 609.971C384.575 609.99 384.456 610.009 384.354 610.009Z" fill="white"/>
<path d="M390.588 612.604C389.976 612.604 389.398 612.127 389.245 611.42C389.058 610.581 389.517 609.741 390.248 609.531L395.485 608.061C396.233 607.851 396.981 608.367 397.168 609.187C397.355 610.027 396.896 610.867 396.165 611.058L390.928 612.528C390.809 612.585 390.707 612.604 390.588 612.604Z" fill="white"/>
<path d="M106.672 283.513C106.672 283.513 105.686 291.129 114.765 293.267L209.434 296.817C209.434 296.817 215.827 293.209 214.671 284.315C214.671 284.295 174.698 259.081 106.672 283.513Z" fill="#084FC7"/>
<path d="M210.733 318.653C161.597 349.002 107.938 324.57 107.938 324.57C110.556 316.534 112.511 307.467 113.922 299.222C115.555 289.62 116.473 281.146 116.898 276.698C137.794 275.419 189.038 272.957 209.118 278.301L209.271 287.33L210.733 318.653Z" fill="#EA9B7A"/>
<path d="M174.44 304.108C174.083 306.952 172.927 309.128 171.89 308.956C170.835 308.785 170.291 306.342 170.648 303.497C171.005 300.653 172.162 298.477 173.199 298.649C174.253 298.821 174.797 301.264 174.44 304.108Z" fill="#D96C63"/>
<path d="M209.255 287.33C188.325 285.898 147.163 285.402 113.906 299.202C115.538 289.601 116.457 281.126 116.882 276.679C137.777 275.4 189.022 272.937 209.102 278.282L209.255 287.33Z" fill="#D96C63"/>
<path d="M232.595 243.677C232.391 244.364 232.152 244.994 231.88 245.586C231.778 245.815 231.676 246.044 231.574 246.254C228.939 251.732 224.876 256.485 221.458 259.863C220.744 260.569 220.064 261.199 219.435 261.772C218.177 262.917 217.105 263.814 216.374 264.406C215.694 264.941 215.303 265.227 215.303 265.227C215.303 265.284 215.303 265.322 215.286 265.399C215.252 265.799 215.218 266.239 215.184 266.697C215.065 268.434 214.963 270.495 214.895 272.862C214.827 274.752 214.776 276.832 214.742 279.085C214.725 280.745 214.691 282.482 214.674 284.276C186.909 270.342 129.714 279.142 106.676 283.494C107.101 281.261 107.475 279.065 107.832 276.928C109.464 267.059 110.382 258.184 110.739 250.224C111.283 238.39 110.365 220.6 108.121 202.218C107.985 201.016 107.832 199.832 107.679 198.649C107.577 197.866 107.475 197.103 107.356 196.32C106.574 190.556 105.655 184.772 104.618 179.16C100.079 154.69 103.258 129.017 125.361 125.982C126.959 125.753 128.541 125.562 130.088 125.371C140.493 124.131 149.062 123.692 151.443 123.596C151.885 123.577 152.106 123.577 152.106 123.577L194.815 137.511L198.879 138.828C201.208 139.668 203.368 140.489 205.374 141.291C206.224 141.634 207.057 141.978 207.839 142.302C209.913 143.18 211.784 144.02 213.501 144.879C216.918 146.578 219.622 148.238 221.764 149.937C231.132 157.401 229.687 165.837 229.449 182.501C229.449 182.577 229.449 182.654 229.449 182.73C229.449 182.94 229.449 183.15 229.449 183.379C229.449 183.474 229.449 183.57 229.449 183.665C229.449 184.352 229.449 185.02 229.449 185.708C229.466 187.864 229.534 190.002 229.653 192.14C229.806 195.29 230.061 198.42 230.367 201.474C230.486 202.696 230.605 203.917 230.741 205.139C230.86 206.284 230.996 207.41 231.132 208.536C232.799 223.119 234.924 235.908 232.595 243.677Z" fill="#0875F7"/>
<path d="M229.444 182.729C229.444 182.939 229.444 183.149 229.444 183.378C229.444 183.474 229.444 183.569 229.444 183.664C229.444 184.352 229.444 185.02 229.444 185.707L220.467 192.025C220.195 192.216 219.889 192.273 219.583 192.216C219.243 192.158 218.937 191.929 218.733 191.586C218.359 190.918 218.546 190.059 219.124 189.639L228.645 182.939C228.883 182.767 229.172 182.71 229.444 182.729Z" fill="#084FC7"/>
<path d="M170.273 236.71C169.933 236.71 169.593 236.557 169.338 236.251C168.879 235.679 168.913 234.782 169.423 234.266L177.771 225.83C178.281 225.314 179.08 225.352 179.539 225.925C179.998 226.498 179.964 227.395 179.454 227.91L171.106 236.347C170.868 236.576 170.562 236.71 170.273 236.71Z" fill="#084FC7"/>
<path d="M231.1 208.536L225.387 214.319C225.149 214.567 224.843 214.682 224.554 214.682C224.214 214.682 223.874 214.529 223.619 214.224C223.16 213.651 223.194 212.754 223.704 212.239L230.709 205.157C230.828 206.283 230.964 207.41 231.1 208.536Z" fill="#084FC7"/>
<path d="M153.337 202.772C153.15 202.448 153.065 202.047 153.15 201.646C153.303 200.882 153.983 200.424 154.663 200.596L165.596 203.497C166.276 203.669 166.684 204.433 166.531 205.196C166.378 205.96 165.698 206.418 165.018 206.246L154.085 203.345C153.762 203.268 153.507 203.058 153.337 202.772Z" fill="#084FC7"/>
<path d="M114.32 226.86C113.98 226.86 113.64 226.708 113.385 226.402C112.926 225.83 112.96 224.933 113.47 224.417L121.818 215.98C122.328 215.465 123.127 215.503 123.586 216.076C124.045 216.649 124.011 217.546 123.501 218.061L115.153 226.498C114.915 226.746 114.626 226.86 114.32 226.86Z" fill="#084FC7"/>
<path d="M211.505 224.856C211.607 224.493 211.862 224.169 212.185 224.016C212.815 223.711 213.563 224.035 213.835 224.742L218.323 236.309C218.595 237.015 218.306 237.855 217.677 238.16C217.048 238.466 216.3 238.141 216.028 237.435L211.539 225.868C211.42 225.524 211.42 225.162 211.505 224.856Z" fill="#084FC7"/>
<path d="M232.602 243.677C232.397 244.364 232.159 244.994 231.887 245.585C231.785 245.814 231.683 246.043 231.581 246.253L225.478 244.096C225.172 243.982 224.933 243.753 224.78 243.467C224.61 243.142 224.542 242.722 224.661 242.34C224.865 241.596 225.58 241.195 226.226 241.424L232.602 243.677Z" fill="#084FC7"/>
<path d="M198.116 244.689C198.456 244.651 198.813 244.766 199.085 245.052C199.595 245.567 199.629 246.464 199.17 247.037L191.621 256.371C191.162 256.944 190.363 256.982 189.853 256.466C189.343 255.951 189.309 255.054 189.768 254.481L197.317 245.147C197.538 244.88 197.827 244.727 198.116 244.689Z" fill="#084FC7"/>
<path d="M193.692 223.157C193.352 223.1 193.046 222.871 192.842 222.527C192.468 221.878 192.655 221 193.233 220.58L202.755 213.881C203.333 213.461 204.115 213.671 204.489 214.32C204.863 214.969 204.676 215.847 204.098 216.267L194.577 222.966C194.304 223.157 193.981 223.215 193.692 223.157Z" fill="#084FC7"/>
<path d="M199.747 182.539C199.968 182.825 200.104 183.207 200.053 183.627C199.985 184.39 199.356 184.963 198.676 184.867L187.505 183.493C186.825 183.417 186.315 182.71 186.4 181.947C186.468 181.183 187.097 180.611 187.777 180.706L198.948 182.081C199.254 182.119 199.543 182.29 199.747 182.539Z" fill="#084FC7"/>
<path d="M183.514 155.338C183.599 154.957 183.82 154.632 184.143 154.441C184.755 154.079 185.52 154.327 185.843 155.014L191.165 166.123C191.488 166.81 191.267 167.669 190.654 168.032C190.042 168.394 189.277 168.146 188.954 167.459L183.633 156.35C183.463 156.025 183.429 155.663 183.514 155.338Z" fill="#084FC7"/>
<path d="M221.473 259.883C220.759 260.589 220.079 261.219 219.45 261.791L217.988 257.592C217.869 257.249 217.869 256.905 217.988 256.58C218.107 256.218 218.362 255.912 218.702 255.76C219.348 255.473 220.079 255.836 220.334 256.561L221.473 259.883Z" fill="#084FC7"/>
<path d="M118.785 238.505C118.615 238.161 118.581 237.76 118.717 237.359C118.955 236.634 119.669 236.252 120.315 236.519L130.89 240.795C131.536 241.062 131.877 241.864 131.638 242.589C131.4 243.315 130.686 243.696 130.04 243.429L119.465 239.154C119.159 239.058 118.921 238.81 118.785 238.505Z" fill="#084FC7"/>
<path d="M123.947 254.557C124.287 254.557 124.627 254.728 124.882 255.034C125.341 255.606 125.29 256.504 124.78 257.019L116.364 265.379C115.854 265.895 115.055 265.837 114.596 265.265C114.137 264.692 114.188 263.795 114.698 263.28L123.114 254.919C123.352 254.671 123.658 254.557 123.947 254.557Z" fill="#084FC7"/>
<path d="M139.204 267.822C139.408 268.128 139.527 268.528 139.459 268.929C139.34 269.693 138.694 270.208 138.014 270.075L126.945 267.956C126.265 267.822 125.806 267.097 125.925 266.333C126.044 265.57 126.69 265.054 127.37 265.188L138.439 267.307C138.745 267.364 139.017 267.555 139.204 267.822Z" fill="#084FC7"/>
<path d="M148.465 149.746C148.38 149.384 148.414 148.964 148.618 148.62C148.992 147.971 149.775 147.78 150.353 148.2L159.789 155.034C160.367 155.454 160.537 156.332 160.163 156.981C159.789 157.63 159.007 157.82 158.429 157.4L148.992 150.567C148.72 150.357 148.533 150.071 148.465 149.746Z" fill="#084FC7"/>
<path d="M212.88 157.801C213.186 157.611 213.543 157.572 213.9 157.706C214.546 157.973 214.886 158.775 214.665 159.5L210.907 171.392C210.669 172.117 209.955 172.499 209.309 172.251C208.663 171.984 208.323 171.182 208.544 170.457L212.301 158.565C212.403 158.241 212.625 157.973 212.88 157.801Z" fill="#084FC7"/>
<path d="M207.83 142.321L202.032 150.681C201.607 151.292 200.825 151.406 200.281 150.929C199.737 150.452 199.635 149.574 200.06 148.963L205.365 141.328C206.215 141.634 207.048 141.977 207.83 142.321Z" fill="#084FC7"/>
<path d="M151.08 257.668C151.199 258.069 151.505 258.355 151.845 258.432C152.015 258.47 152.202 258.47 152.372 258.393C152.559 258.317 170.735 251.713 189.845 260.608C199.554 265.131 208.191 266.849 215.179 266.697C215.213 266.238 215.247 265.818 215.281 265.399C215.281 265.341 215.298 265.284 215.298 265.246C215.298 265.246 215.689 264.96 216.369 264.425C209.5 264.807 200.71 263.165 190.627 258.489C170.786 249.25 152.491 255.931 151.726 256.217C151.199 256.427 150.91 257.076 151.08 257.668Z" fill="#084FC7"/>
<path d="M194.809 137.51C192.412 141.671 187.481 146.386 177.484 145.584C163.695 144.458 154.616 129.684 151.453 123.614C151.878 123.595 152.116 123.595 152.116 123.595L194.809 137.51Z" fill="#084FC7"/>
<path d="M180.139 164.921C180.547 165.016 180.955 165.073 181.363 165.111C185.172 165.455 188.266 164.214 190.545 161.428C197.175 153.296 194.455 134.743 194.336 133.96C194.234 133.33 193.707 132.911 193.163 133.025C192.602 133.14 192.228 133.731 192.33 134.342C192.364 134.533 194.999 152.571 189.048 159.881C187.195 162.153 184.73 163.126 181.55 162.84C168.186 161.637 153.207 123.519 153.054 123.138C152.833 122.565 152.221 122.298 151.711 122.546C151.201 122.794 150.963 123.481 151.184 124.054C151.762 125.638 165.976 161.695 180.139 164.921Z" fill="white"/>
<path d="M221.762 149.938C220.878 160.932 223.292 179.085 229.617 192.141C229.464 189.335 229.396 186.491 229.43 183.666C229.43 183.57 229.43 183.475 229.43 183.38C229.43 183.093 229.447 182.807 229.447 182.521C229.668 165.857 231.113 157.401 221.762 149.938Z" fill="#EA9B7A"/>
<path d="M143.193 169.292C138.296 190.517 120.376 207.544 108.134 202.237C107.981 201.054 107.845 199.851 107.692 198.668C107.59 197.885 107.488 197.122 107.369 196.339C106.587 190.575 105.669 184.791 104.632 179.179C100.092 154.709 103.288 129.036 125.374 126.001C126.973 125.772 128.554 125.581 130.101 125.39C141.135 130.677 148.838 144.86 143.193 169.292Z" fill="#EA9B7A"/>
<path d="M145.721 153.106L174.421 270.953L164.185 257.706C167.977 259.959 172.363 261.715 177.226 262.936C182.072 264.158 187.376 264.864 192.902 265.189C198.445 265.513 204.209 265.456 210.108 265.189C216.008 264.922 222.044 264.425 228.165 263.834H228.199C237.227 262.975 245.167 270.476 245.932 280.612C246.663 290.27 240.56 298.84 232.16 300.367C225.853 301.494 219.426 302.562 212.846 303.421C206.266 304.28 199.516 304.91 192.511 305.101C185.523 305.273 178.28 304.987 170.799 303.765C163.335 302.543 155.582 300.367 147.999 296.683C143.153 294.336 139.702 289.869 138.138 284.658L137.781 283.437L103.334 167.536C99.4575 154.518 105.731 140.432 117.327 136.08C128.922 131.728 141.47 138.771 145.347 151.789C145.5 152.209 145.619 152.705 145.721 153.106Z" fill="#EA9B7A"/>
<path d="M158.578 267.192C158.289 267.192 158 267.02 157.847 266.715C157.609 266.257 157.762 265.684 158.17 265.417C158.442 265.245 164.716 261.275 171.279 260.702C171.755 260.664 172.163 261.046 172.197 261.58C172.231 262.115 171.891 262.573 171.415 262.611C165.243 263.146 159.071 267.039 159.02 267.078C158.867 267.154 158.714 267.192 158.578 267.192Z" fill="#D96C63"/>
<path d="M169.018 262.936C168.865 262.936 168.712 262.898 168.576 262.802C164.614 260.111 159.82 259.691 159.769 259.691C159.293 259.653 158.953 259.195 158.987 258.679C159.021 258.145 159.412 257.763 159.888 257.801C160.092 257.821 165.142 258.24 169.443 261.18C169.851 261.447 169.97 262.039 169.732 262.497C169.579 262.764 169.29 262.936 169.018 262.936Z" fill="#D96C63"/>
<path d="M194.581 200.825C207.282 203.707 212.842 188.972 212.893 188.819C213.114 188.227 212.859 187.559 212.332 187.33C211.805 187.082 211.209 187.368 211.005 187.96C210.801 188.514 206.007 201.092 194.989 198.592C183.411 195.958 161.818 170.399 161.614 170.132C161.223 169.674 160.577 169.655 160.169 170.094C159.76 170.533 159.743 171.258 160.135 171.717C161.019 172.766 182.391 198.038 194.581 200.825Z" fill="#084FC7"/>
<path d="M174.619 108.002C174.619 108.002 154.233 103.688 148.487 80.5918C143.012 58.6028 147.228 47.1884 152.924 35.3158C157.209 26.3637 170.811 14.2812 189.87 18.6141C209.117 22.9852 223.518 34.0942 225.643 51.8648C229.604 85.1156 205.716 125.677 174.619 108.002Z" fill="#39393B"/>
<path d="M149.457 84.161C149.083 84.161 148.726 83.9511 148.539 83.5502C148.165 82.8249 139.596 65.5123 146.72 42.7216C151.174 28.4822 159.93 22.126 166.51 19.282C173.617 16.2088 179.585 16.5143 179.84 16.5143C180.418 16.5524 180.877 17.106 180.843 17.774C180.809 18.423 180.333 18.9384 179.738 18.9002C179.687 18.9002 173.889 18.633 167.19 21.5343C158.281 25.4091 152.075 32.7961 148.726 43.5042C141.942 65.226 150.307 82.195 150.392 82.3668C150.681 82.9394 150.511 83.6647 150.001 83.9892C149.814 84.1037 149.644 84.161 149.457 84.161Z" fill="#FAAF3A"/>
<path d="M214.141 84.524C214.141 84.524 220.772 78.645 222.523 86.4327C224.275 94.2205 219.344 108.059 211.625 103.86L214.141 84.524Z" fill="#D96C63"/>
<path d="M207.699 98.8369C204.401 100.058 201.493 103.342 200.745 107.407C199.657 113.477 203.159 119.394 208.549 120.635C213.956 121.857 219.227 117.925 220.332 111.874C221.148 107.331 219.397 102.864 216.183 100.402C215.112 99.5622 213.871 98.9705 212.511 98.6651C212.477 98.6651 212.443 98.646 212.409 98.646C212.222 99.4095 212.29 100.02 212.681 100.498C213.769 100.822 214.755 101.376 215.622 102.101C218.121 104.239 219.465 107.846 218.802 111.53C217.883 116.646 213.412 119.967 208.855 118.936C204.299 117.905 201.34 112.885 202.258 107.77C202.938 104.048 205.387 101.414 208.464 100.574L207.699 98.8369Z" fill="#FAAF3A"/>
<path d="M194.085 117.91L191.314 137.417C191.314 137.417 178.307 152.325 154.555 125.583C160.931 120.258 163.362 107.889 162.614 99.9102C162.614 99.9102 164.484 101.17 167.374 104.109C167.935 104.682 168.667 105.121 169.364 105.675C175.638 110.447 185.261 116.688 194.085 117.91Z" fill="#EA9B7A"/>
<path d="M194.07 117.909L192.761 127.147C185.637 123.578 173.038 115.962 167.359 104.089C167.971 104.586 168.652 105.101 169.349 105.655C175.622 110.446 185.246 116.687 194.07 117.909Z" fill="#39393B"/>
<path d="M220.578 79.8287C220.204 81.8901 219.864 83.8562 219.507 85.7268C219.133 87.7501 218.776 89.6588 218.419 91.4531C215.783 104.948 213.624 112.182 210.121 114.893C192.388 128.579 163.535 100.863 162.6 99.9662C162.583 99.9471 162.583 99.9471 162.583 99.9471C162.566 98.3628 162.566 96.7785 162.583 95.2324C162.804 82.1001 164.793 70.3039 167.956 59.4048C169.537 47.4941 177.766 37.9503 188.359 36.156C199.342 34.3045 207.605 41.4433 212.774 44.5928C220.578 49.3647 223.638 62.6307 220.578 79.8287Z" fill="#EA9B7A"/>
<path d="M168.575 47.1496C168.575 47.1496 180.987 20.3505 205.742 27.8329C230.498 35.3153 231.807 48.2186 232.249 54.6702C232.691 61.1218 219.429 49.6883 219.429 49.6883C219.429 49.6883 218.97 62.5916 214.549 58.6214C209.126 53.7349 203.073 43.2176 203.073 43.2176C203.073 43.2176 188.332 59.4803 174.322 55.0901C166.348 52.6087 168.575 47.1496 168.575 47.1496Z" fill="#39393B"/>
<path d="M198.982 106.112C195.768 106.112 193.558 103.612 193.456 103.478C193.116 103.077 193.116 102.447 193.473 102.066C193.83 101.684 194.374 101.684 194.714 102.085C194.833 102.218 197.384 105.062 200.75 103.765C201.209 103.593 201.719 103.86 201.872 104.375C202.025 104.891 201.787 105.463 201.328 105.635C200.512 105.979 199.73 106.112 198.982 106.112Z" fill="#D96C63"/>
<path d="M191.582 89.8872C191.582 89.8872 203.518 93.8574 209.707 93.8574C209.707 93.8574 206.612 103.783 197.771 100.309C190.885 97.5986 191.582 89.8872 191.582 89.8872Z" fill="white"/>
<path d="M213.709 61.982C213.709 61.982 210.615 61.6194 211.108 64.9979C211.618 68.3764 218.334 66.3149 221.666 73.072C221.666 73.072 224.88 65.9904 213.709 61.982Z" fill="#39393B"/>
<path d="M199.916 58.8505C199.916 58.8505 202.891 59.8812 201.259 62.7635C199.627 65.6457 194.152 60.8165 188.745 65.5885C188.745 65.5885 188.252 57.6671 199.916 58.8505Z" fill="#39393B"/>
<path d="M194.587 83.0357C194.298 84.62 191.152 85.2499 187.531 84.4291C183.926 83.6083 181.24 81.6614 181.529 80.058C181.818 78.4737 184.964 77.8439 188.585 78.6646C192.19 79.4854 194.876 81.4514 194.587 83.0357Z" fill="#D96C63"/>
<path d="M229.876 84.0854L220.236 82.2339C220.185 82.692 220.083 83.1501 219.998 83.5891C219.981 83.6655 219.964 83.7418 219.93 83.8182L229.638 85.6697C230.029 85.746 230.403 85.4406 230.471 85.0016C230.539 84.5817 230.284 84.1617 229.876 84.0854Z" fill="white"/>
<path d="M204.003 74.8458C204.003 74.2923 203.986 73.7387 203.918 73.2043C203.595 70.2647 202.439 67.5543 200.671 65.4547C199.039 63.5268 196.913 62.1143 194.448 61.5035C194.414 61.4844 194.363 61.4844 194.329 61.4653C188.684 60.1673 183.124 63.4886 180.829 69.1386C180.625 69.6348 180.455 70.1311 180.302 70.6465C180.166 71.1046 180.064 71.5818 179.962 72.059C179.316 75.6093 179.945 79.1214 181.526 81.9846C182.07 82.958 182.716 83.8552 183.447 84.6378C185.046 86.3747 187.069 87.6345 189.398 88.169C193.326 89.0852 197.185 87.749 199.957 84.9622C201.827 83.0917 203.204 80.5339 203.748 77.5753C203.748 77.5562 203.748 77.5562 203.748 77.5371C203.918 76.64 204.003 75.7429 204.003 74.8458ZM189.704 86.5847C189.636 86.5656 189.585 86.5656 189.534 86.5465C186.491 85.783 184.026 83.607 182.58 80.763C181.339 78.3006 180.846 75.3611 181.39 72.3835C181.509 71.7727 181.662 71.181 181.849 70.6083C181.866 70.5701 181.883 70.532 181.883 70.4938C183.396 66.0845 187.086 63.0878 191.235 62.8205C192.153 62.7633 193.088 62.8205 194.04 63.0496C196.08 63.5268 197.848 64.6148 199.26 66.1227C201.844 68.8904 203.136 73.0515 202.371 77.2508C201.147 83.7406 195.485 87.9399 189.704 86.5847Z" fill="white"/>
<path d="M225.737 69.2702C225.414 69.0793 225.074 68.9075 224.716 68.7357C224.308 68.5448 223.883 68.3921 223.458 68.2394C223.152 68.144 222.863 68.0485 222.54 67.9913C221.962 67.8577 221.401 67.7813 220.84 67.7431C220.16 67.6859 219.48 67.705 218.817 67.8004C216.963 68.0295 215.212 68.7166 213.665 69.8046C211.965 70.9881 210.52 72.6487 209.533 74.6529C209.261 75.1683 209.04 75.7027 208.836 76.2372C208.819 76.2753 208.819 76.2944 208.802 76.3326C208.547 77.0579 208.343 77.8215 208.19 78.604C207.221 83.8723 209.108 89.0641 212.662 92.1563C213.818 93.1679 215.144 93.9505 216.606 94.4277C216.827 94.5041 217.048 94.5804 217.286 94.6186C217.406 94.6568 217.508 94.6759 217.627 94.714C218.8 94.9813 219.973 95.0576 221.112 94.9431C221.299 94.924 221.486 94.9049 221.656 94.8858C222.149 94.8095 222.642 94.7141 223.135 94.5614C224.036 94.2941 224.921 93.9124 225.737 93.4352C228.848 91.6027 231.228 88.2815 231.993 84.1204C233.099 78.0123 230.395 72.0188 225.737 69.2702ZM230.565 83.7768C230.514 84.044 230.463 84.2922 230.395 84.5403C230.31 84.903 230.208 85.2466 230.089 85.6092C229.239 88.1479 227.675 90.2094 225.703 91.5646C224.989 92.0609 224.206 92.4617 223.39 92.7671C222.88 92.958 222.37 93.0916 221.826 93.187C221.673 93.2252 221.52 93.2443 221.367 93.2634C220.245 93.4161 219.072 93.3779 217.899 93.1107C217.797 93.0916 217.678 93.0534 217.576 93.0343C217.508 93.0152 217.44 92.9962 217.388 92.9771C215.671 92.4808 214.141 91.5264 212.9 90.2475C212.713 90.0566 212.543 89.8658 212.373 89.6749C210.01 86.9263 208.853 82.9369 209.584 78.9094C209.754 78.0123 210.01 77.1343 210.333 76.3326C211.404 73.6985 213.274 71.6561 215.535 70.4536C216.929 69.7092 218.477 69.3083 220.075 69.3083C220.33 69.3083 220.585 69.3274 220.857 69.3465C221.316 69.3847 221.775 69.461 222.234 69.5565C222.574 69.6328 222.897 69.7283 223.22 69.8428C223.662 69.9955 224.087 70.1864 224.512 70.3963C224.836 70.5681 225.159 70.759 225.482 70.9499C229.341 73.4885 231.517 78.5849 230.565 83.7768Z" fill="white"/>
<path d="M165.498 71.6025C165.413 71.5834 165.328 71.5452 165.26 71.4879C164.92 71.2398 164.835 70.7435 165.039 70.3809C169.868 61.9059 181.48 69.5219 181.582 69.5983C181.923 69.8273 182.042 70.3236 181.838 70.7054C181.633 71.0871 181.191 71.2207 180.851 70.9917C180.749 70.9153 170.327 64.101 166.246 71.2589C166.093 71.5261 165.787 71.6597 165.498 71.6025Z" fill="white"/>
<path d="M209.305 76.6946C209.118 76.6564 208.965 76.5228 208.846 76.351C207.299 73.6787 204 74.8812 203.966 74.8812C203.592 75.0148 203.184 74.7858 203.065 74.3659C202.946 73.946 203.15 73.4879 203.524 73.3542C205.037 72.7816 208.353 72.4953 210.07 75.473C210.291 75.8547 210.189 76.351 209.849 76.58C209.679 76.6946 209.492 76.7328 209.305 76.6946Z" fill="white"/>
<g opacity="0.8">
<g opacity="0.8">
<g opacity="0.8">
<g opacity="0.8">
<g opacity="0.8">
<g opacity="0.8">
<g opacity="0.8">
<path opacity="0.8" d="M219.482 85.726C219.108 87.7493 218.751 89.6581 218.394 91.4523C215.113 90.5552 212.749 88.7419 213.021 87.2339C213.31 85.7451 216.133 85.0961 219.482 85.726Z" fill="#D96C63"/>
</g>
</g>
</g>
</g>
</g>
</g>
</g>
<path d="M197.108 75.0352C196.717 77.2303 195.51 78.7955 194.422 78.5474C193.334 78.2992 192.772 76.3332 193.163 74.1381C193.555 71.943 194.762 70.3778 195.85 70.626C196.938 70.8741 197.499 72.8401 197.108 75.0352Z" fill="#39393B"/>
<path d="M216.397 79.4268C216.006 81.6219 214.799 83.1871 213.711 82.9389C212.623 82.6908 212.061 80.7248 212.453 78.5297C212.844 76.3346 214.051 74.7694 215.139 75.0176C216.227 75.2657 216.788 77.2317 216.397 79.4268Z" fill="#39393B"/>
<path d="M206.427 85.3055C207.362 85.5155 208.025 85.4773 208.076 85.4773C208.297 85.4582 208.518 85.3437 208.671 85.1528C208.824 84.9619 208.875 84.6947 208.858 84.4466L207.617 74.2347C207.549 73.7384 207.141 73.3757 206.699 73.4521C206.257 73.5284 205.934 73.9865 206.002 74.4828L207.107 83.5877C206.291 83.454 205.067 83.0723 203.962 82.0415C203.622 81.717 203.095 81.7743 202.806 82.1561C202.517 82.5378 202.568 83.1295 202.908 83.454C204.115 84.5611 205.424 85.0765 206.427 85.3055Z" fill="#39393B"/>
<path d="M170.539 92.5225C170.403 92.7515 166.629 98.8405 162.599 99.9476C162.582 99.9285 162.582 99.9285 162.582 99.9285C162.548 98.3442 162.565 96.7599 162.582 95.2138C162.718 95.2329 166.561 95.3474 170.539 92.5225Z" fill="#39393B"/>
<path d="M169.719 76.5252C169.719 76.5252 164.04 63.0111 156.678 70.9325C150.608 77.4796 155.913 99.3159 166.454 94.6394L169.719 76.5252Z" fill="#EA9B7A"/>
<path d="M155.754 88.1879C152.455 89.4095 149.548 92.6926 148.8 96.7583C147.712 102.828 151.214 108.745 156.604 109.986C162.011 111.208 167.281 107.276 168.386 101.225C169.202 96.682 167.451 92.2154 164.238 89.7531C163.167 88.9133 161.926 88.3216 160.565 88.0161C160.531 88.0161 160.497 87.9971 160.463 87.9971C160.276 88.7606 160.361 89.3714 160.735 89.8486C161.824 90.1731 162.81 90.7266 163.677 91.4519C166.176 93.5898 167.519 97.1973 166.856 100.881C165.938 105.997 161.466 109.318 156.91 108.287C152.353 107.257 149.395 102.236 150.313 97.121C150.976 93.3989 153.441 90.7648 156.519 89.9249L155.754 88.1879Z" fill="#FAAF3A"/>
<path d="M166.045 90.8816C166.079 90.8816 166.096 90.9006 166.13 90.9006C166.572 90.9388 166.98 90.5762 167.014 90.0608C167.847 79.8489 160.978 74.6761 160.689 74.4661C160.315 74.1798 159.805 74.3135 159.55 74.7334C159.295 75.1533 159.414 75.726 159.788 76.0123C160.043 76.2031 166.13 80.8224 165.381 89.9081C165.364 90.3662 165.653 90.7861 166.045 90.8816Z" fill="#39393B"/>
<path d="M159.528 83.7229C159.698 83.761 159.902 83.7419 160.072 83.6274C160.888 83.1502 163.286 82.0813 164.595 82.7875C165.003 83.0166 165.496 82.8257 165.683 82.3676C165.887 81.9095 165.717 81.356 165.309 81.146C163.031 79.9053 159.698 81.795 159.324 82.005C158.916 82.234 158.763 82.7876 158.984 83.2457C159.086 83.4938 159.307 83.6656 159.528 83.7229Z" fill="#39393B"/>
<path d="M177.061 53.6016C177.061 53.6016 169.427 76.8695 169.019 81.565C168.458 87.9594 160.926 66.0468 168.492 47.3408L177.061 53.6016Z" fill="#39393B"/>
<path d="M304.603 546.905H273.166C273.166 546.905 265.889 507.737 263.457 485.786C261.009 463.816 259.751 411.764 259.751 411.764C259.751 411.764 234.706 420.907 182.271 417.452C66.0947 409.836 110.148 314.016 110.148 314.016C114.075 320.105 143.523 328.485 159.947 331.405C210.393 336.845 248.733 346.465 274.985 359.178C281.31 362.232 286.92 365.477 291.851 368.893C298.176 373.264 302.138 386.568 304.535 404.034C311.693 456.544 304.603 546.905 304.603 546.905Z" fill="#39393B"/>
<path d="M277.028 528.044C276.501 528.044 276.042 527.624 275.923 527.032C271.383 501.837 269.87 470.476 268.646 445.28C267.626 424.379 266.674 404.642 264.276 402.275C262.338 400.348 254.296 401.855 244.129 403.745C223.879 407.524 193.275 413.213 159.542 404.413C141.163 399.603 127.646 389.582 119.383 374.617C105.118 348.811 111.63 316.801 111.698 316.476C111.834 315.789 112.446 315.369 113.058 315.541C113.67 315.694 114.044 316.381 113.891 317.068C113.823 317.373 107.549 348.391 121.321 373.3C129.261 387.673 142.302 397.313 160.069 401.951C193.377 410.655 223.709 405.005 243.789 401.264C255.809 399.03 263.069 397.675 265.807 400.386C268.765 403.325 269.598 417.755 270.924 445.146C272.148 470.266 273.662 501.512 278.167 526.536C278.286 527.223 277.895 527.891 277.283 528.025C277.181 528.025 277.113 528.044 277.028 528.044Z" fill="#585859"/>
<path d="M305.173 528.693H305.156L270.199 527.854C269.57 527.834 269.077 527.262 269.094 526.556C269.111 525.849 269.621 525.296 270.25 525.315L305.207 526.155C305.836 526.174 306.329 526.746 306.312 527.453C306.278 528.159 305.785 528.693 305.173 528.693Z" fill="#585859"/>
<path d="M303.771 592.12H281.583L277.315 562.897L274.969 546.901H302.529L302.972 562.897L303.771 592.12Z" fill="#EA9B7A"/>
<path d="M303.713 592.122H281.525L278.346 570.362L277.258 562.898H302.914L303.118 570.629L303.713 592.122Z" fill="#FAAF3A"/>
<path d="M303.118 570.629L278.346 570.362L277.258 562.898H302.914L303.118 570.629Z" fill="#C77E2E"/>
<path d="M358.498 631.463H274.574C273.945 630.184 273.605 628.39 273.469 626.233C272.942 618.254 275.203 605.542 276.308 597.525C276.444 596.59 276.563 595.712 276.649 594.929C276.802 593.593 276.904 592.467 276.904 591.646C276.904 585.099 282.055 586.225 282.055 586.225C290.539 595.578 300.163 581.568 305.773 586.149C305.773 586.149 305.994 586.34 306.522 586.779C306.998 587.199 307.712 587.848 308.698 588.783C310.126 590.119 312.132 592.066 314.853 594.815C321.518 601.553 332.841 605.981 342.481 610.505C343.706 611.078 344.845 611.65 345.916 612.242C346.715 612.681 347.48 613.12 348.194 613.54C356.083 618.312 358.583 622.893 359.161 626.214C359.722 629.402 358.498 631.463 358.498 631.463Z" fill="#0875F7"/>
<path d="M348.225 613.558C346.066 615.486 341.254 619.36 337.394 619.36C337.224 619.36 337.054 619.361 336.884 619.341C334.164 619.093 324.167 613.577 316.023 608.557C311.364 605.675 307.096 602.85 304.036 600.578C299.02 596.856 298.136 595.444 297.949 594.451C297.218 590.729 302.693 588.152 306.535 586.797C307.011 587.217 307.725 587.866 308.712 588.801C303.951 590.252 300.023 592.542 300.21 593.84C300.686 594.947 305.651 599.185 317.519 606.495C326.581 612.069 335.167 616.555 337.071 616.745C339.656 616.975 343.447 614.34 345.93 612.26C346.763 612.68 347.511 613.119 348.225 613.558Z" fill="#084FC7"/>
<path d="M358.474 631.46H274.55C273.921 630.181 273.581 628.387 273.445 626.23H359.154C359.698 629.399 358.474 631.46 358.474 631.46Z" fill="#084FC7"/>
<path d="M283.163 631.462H280.664C283.146 628.274 285.475 623.368 285.169 616.382C284.761 607.067 279.797 600.807 276.328 597.524C276.464 596.588 276.583 595.71 276.668 594.928C280.392 598.115 286.666 605.121 287.159 616.268C287.465 622.948 285.509 627.93 283.163 631.462Z" fill="#084FC7"/>
<path d="M313.471 600.385C312.859 600.385 312.281 599.908 312.128 599.201C311.941 598.361 312.4 597.522 313.131 597.312L318.368 595.842C319.116 595.632 319.864 596.147 320.051 596.968C320.238 597.808 319.779 598.648 319.048 598.858L313.811 600.327C313.692 600.366 313.573 600.385 313.471 600.385Z" fill="white"/>
<path d="M308.26 595.48C307.631 595.48 307.07 595.003 306.917 594.296C306.73 593.457 307.189 592.617 307.92 592.407L313.157 590.937C313.905 590.727 314.653 591.242 314.84 592.063C315.027 592.903 314.568 593.743 313.837 593.953L308.6 595.423C308.481 595.461 308.379 595.48 308.26 595.48Z" fill="white"/>
<path d="M318.69 603.807C318.078 603.807 317.5 603.329 317.347 602.623C317.159 601.783 317.619 600.943 318.35 600.753L323.586 599.283C324.334 599.073 325.083 599.588 325.27 600.409C325.457 601.249 324.998 602.089 324.266 602.299L319.03 603.768C318.911 603.787 318.792 603.807 318.69 603.807Z" fill="white"/>
<path d="M323.908 607.089C323.296 607.089 322.718 606.612 322.565 605.905C322.378 605.065 322.837 604.226 323.568 604.035L328.805 602.565C329.553 602.355 330.301 602.87 330.488 603.691C330.675 604.531 330.216 605.371 329.485 605.581L324.248 607.051C324.129 607.07 324.027 607.089 323.908 607.089Z" fill="white"/>
<path d="M329.619 610.124C329.007 610.124 328.429 609.647 328.276 608.941C328.089 608.101 328.548 607.261 329.279 607.07L334.516 605.6C335.264 605.39 336.012 605.906 336.199 606.726C336.386 607.566 335.927 608.406 335.196 608.616L329.959 610.086C329.84 610.124 329.738 610.124 329.619 610.124Z" fill="white"/>
<path d="M335.838 612.719C335.209 612.719 334.648 612.242 334.495 611.536C334.308 610.696 334.767 609.856 335.498 609.646L340.735 608.176C341.483 607.966 342.231 608.482 342.418 609.303C342.605 610.142 342.146 610.982 341.415 611.192L336.178 612.662C336.059 612.7 335.94 612.719 335.838 612.719Z" fill="white"/>
<path d="M420.355 312.605V320.431C420.355 324.936 417.941 328.581 414.949 328.581H38.3989C35.4065 328.581 32.9922 324.936 32.9922 320.431V312.605C32.9922 308.1 35.4065 304.455 38.3989 304.455H414.932C417.924 304.455 420.355 308.1 420.355 312.605Z" fill="#21B573"/>
<path d="M420.355 315.083H32.9922V318.672H420.355V315.083Z" fill="#217C58"/>
<path d="M409.044 348.679H55.1078C53.5265 348.679 52.2344 347.229 52.2344 345.453V328.465H411.918V345.453C411.918 347.229 410.626 348.679 409.044 348.679Z" fill="#217C58"/>
<path d="M393.141 448.392H76.6094V462.25H393.141V448.392Z" fill="#217C58"/>
<path d="M53.7749 633.924L115.051 348.678H93.5263L32.25 633.924H53.7749Z" fill="#21B573"/>
<path d="M415.567 633.926L354.273 348.679H375.798L437.075 633.926H415.567Z" fill="#21B573"/>
<path d="M67.3887 238.896L60.75 240.038L68.4235 296.284L75.0622 295.142L67.3887 238.896Z" fill="#FAAF3A"/>
<path d="M67.4043 238.866L60.7734 240.011L62.2356 234.323L62.9837 231.364L64.4969 233.922L67.4043 238.866Z" fill="#EA9B7A"/>
<path d="M74.4981 291.046L67.8594 292.188L68.418 296.282L75.0566 295.14L74.4981 291.046Z" fill="#39393B"/>
<path d="M75.0776 298.438L69.3138 299.431C69.0758 299.469 68.8377 299.278 68.8037 299.011L68.4297 296.243L75.0776 295.098L75.4516 297.865C75.4856 298.152 75.3156 298.4 75.0776 298.438Z" fill="#DF615C"/>
<path d="M64.4879 233.922L62.2266 234.323L62.9747 231.364L64.4879 233.922Z" fill="#39393B"/>
<path d="M74.1309 288.107L67.4922 289.249L67.8912 292.173L74.5299 291.032L74.1309 288.107Z" fill="#C77E2E"/>
<path d="M62.7813 242.493L68.46 284.142C68.5111 284.467 68.7661 284.677 69.0381 284.619C69.3102 284.562 69.5142 284.276 69.4632 283.97L63.7844 242.321C63.7334 242.016 63.4784 241.787 63.2063 241.844C62.9343 241.882 62.7303 242.187 62.7813 242.493Z" fill="#C77E2E"/>
<path d="M65.3907 242.052L71.0694 283.702C71.1204 284.007 71.3755 284.236 71.6475 284.179C71.9365 284.122 72.1236 283.835 72.0726 283.53L66.3938 241.881C66.3428 241.575 66.0878 241.346 65.8157 241.403C65.5437 241.442 65.3397 241.728 65.3907 242.052Z" fill="#C77E2E"/>
<path d="M79.4347 239.123L72.7188 239.147L72.8859 296.048L79.6019 296.023L79.4347 239.123Z" fill="#21B573"/>
<path d="M79.4347 239.133L72.7188 239.153L74.912 233.77L76.0512 230.964L77.2074 233.751L79.4347 239.133Z" fill="#EA9B7A"/>
<path d="M79.5675 291.901L72.8516 291.926L72.8638 296.068L79.5797 296.043L79.5675 291.901Z" fill="#39393B"/>
<path d="M79.1489 299.317L73.3171 299.336C73.062 299.336 72.875 299.107 72.875 298.84V296.053L79.5909 296.034V298.82C79.5909 299.088 79.4039 299.317 79.1489 299.317Z" fill="#DF615C"/>
<path d="M77.2094 233.751L74.9141 233.77L76.0532 230.964L77.2094 233.751Z" fill="#39393B"/>
<path d="M79.544 288.924L72.8281 288.948L72.8368 291.907L79.5527 291.882L79.544 288.924Z" fill="#217C58"/>
<path d="M74.375 241.958L74.494 284.084C74.494 284.409 74.7321 284.657 75.0041 284.657C75.2931 284.657 75.5142 284.39 75.5142 284.084L75.3951 241.958C75.3951 241.633 75.1571 241.385 74.8851 241.385C74.613 241.366 74.375 241.633 74.375 241.958Z" fill="#217C58"/>
<path d="M77.0312 241.94L77.1503 284.067C77.1503 284.391 77.3883 284.639 77.6603 284.639C77.9494 284.639 78.1704 284.372 78.1704 284.067L78.0514 241.94C78.0514 241.616 77.8134 241.368 77.5413 241.368C77.2693 241.368 77.0312 241.616 77.0312 241.94Z" fill="#217C58"/>
<path d="M84.3605 238.841L77.2344 295.178L83.8838 296.238L91.01 239.901L84.3605 238.841Z" fill="#0875F7"/>
<path d="M90.9916 239.934L84.3438 238.865L87.2001 233.883L88.6963 231.306L89.4784 234.246L90.9916 239.934Z" fill="#EA9B7A"/>
<path d="M84.4152 292.188L77.7656 291.129L77.2463 295.23L83.8959 296.289L84.4152 292.188Z" fill="#39393B"/>
<path d="M83.0328 299.45L77.269 298.534C77.031 298.496 76.861 298.247 76.895 297.961L77.252 295.193L83.8999 296.262L83.5428 299.03C83.4918 299.297 83.2708 299.488 83.0328 299.45Z" fill="#DF615C"/>
<path d="M89.4971 234.246L87.2188 233.883L88.7149 231.306L89.4971 234.246Z" fill="#39393B"/>
<path d="M78.1286 288.166L77.7578 291.096L84.4073 292.157L84.778 289.227L78.1286 288.166Z" fill="#084FC7"/>
<path d="M85.6575 241.901L80.3868 283.608C80.3528 283.932 80.5398 284.219 80.8289 284.257C81.1179 284.295 81.3729 284.085 81.4069 283.761L86.6776 242.054C86.7117 241.73 86.5246 241.443 86.2356 241.405C85.9635 241.367 85.7085 241.596 85.6575 241.901Z" fill="#084FC7"/>
<path d="M88.2591 242.321L82.9884 284.028C82.9543 284.352 83.1414 284.638 83.4304 284.677C83.7195 284.715 83.9745 284.505 84.0085 284.18L89.2792 242.474C89.3132 242.149 89.1262 241.863 88.8371 241.825C88.5481 241.787 88.2931 241.997 88.2591 242.321Z" fill="#084FC7"/>
<path d="M93.2112 261.638L92.8542 264.692L92.5311 267.46L92.0551 271.659L91.732 274.408L91.2559 278.645L90.9329 281.356L90.4398 285.631L90.1338 288.304L89.6407 292.618L89.3347 295.252L88.8416 299.604L88.5356 302.2L88.2805 304.452H61.859L61.604 302.2L61.2979 299.604L60.8048 295.252L60.4988 292.618L60.0057 288.304L59.6997 285.631L59.2066 281.356L58.9006 278.645L58.4075 274.408L58.1015 271.659L57.6084 267.46L57.2854 264.692L56.9453 261.638H93.2112Z" fill="#DF615C"/>
<path d="M92.8344 264.69L92.5114 267.458H57.5887L57.2656 264.69H92.8344Z" fill="#B11722"/>
<path d="M92.0395 271.659L91.7165 274.407H58.392L58.0859 271.659H92.0395Z" fill="#B11722"/>
<path d="M91.246 278.646L90.923 281.356H59.1967L58.8906 278.646H91.246Z" fill="#B11722"/>
<path d="M90.4277 285.631L90.1216 288.304H59.9935L59.6875 285.631H90.4277Z" fill="#B11722"/>
<path d="M89.6341 292.617L89.3281 295.251H60.7982L60.4922 292.617H89.6341Z" fill="#B11722"/>
<path d="M88.8406 299.603L88.5345 302.198H61.6029L61.2969 299.603H88.8406Z" fill="#B11722"/>
<path d="M418.172 153.182L395.644 260.149L395.049 262.955L393.536 270.151C392.873 273.281 390.407 275.476 387.551 275.476H235.772C231.793 275.476 228.869 271.315 229.787 266.982L254.423 149.994C255.086 146.883 257.552 144.688 260.408 144.688H412.17C416.149 144.688 419.073 148.849 418.172 153.182Z" fill="#39393B"/>
<path d="M395.633 260.131L395.055 262.956H237.461V260.131H395.633Z" fill="#585859"/>
<path d="M296.959 171.144C295.701 178.722 289.206 184.869 282.456 184.869C275.706 184.869 271.251 178.722 272.51 171.144C273.768 163.567 280.263 157.42 287.012 157.42C293.779 157.42 298.217 163.567 296.959 171.144Z" fill="#FAAF3A"/>
<path d="M283.166 168.531C282.911 170.039 282.231 171.28 281.653 171.28C281.058 171.28 280.786 170.058 281.041 168.531C281.296 167.023 281.976 165.783 282.554 165.783C283.149 165.783 283.421 167.004 283.166 168.531Z" fill="#39393B"/>
<path d="M289.508 168.531C289.253 170.039 288.572 171.28 287.994 171.28C287.416 171.28 287.127 170.058 287.382 168.531C287.637 167.023 288.317 165.783 288.896 165.783C289.491 165.783 289.763 167.004 289.508 168.531Z" fill="#39393B"/>
<path d="M283.733 177.842C278.48 177.842 278.259 171.944 278.259 171.887C278.242 171.562 278.48 171.238 278.786 171.181C279.092 171.104 279.33 171.314 279.347 171.639C279.347 171.849 279.551 176.659 283.954 176.659C288.341 176.659 290.143 171.849 290.228 171.639C290.347 171.314 290.67 171.123 290.942 171.181C291.214 171.257 291.35 171.562 291.231 171.887C291.18 171.925 288.987 177.842 283.733 177.842Z" fill="#39393B"/>
<path d="M367.119 235.24C367.255 242.34 377.967 251.235 377.967 251.235C377.967 251.235 390.412 242.34 391.926 235.24C393.558 227.547 385.737 225.18 379.939 230.983C375.263 225.18 366.966 227.547 367.119 235.24Z" fill="#DF615C"/>
<path d="M344.411 214.644C343.68 222.012 337.78 227.968 331.234 227.968C324.688 227.968 319.945 221.993 320.676 214.644C321.407 207.277 327.307 201.321 333.853 201.321C340.416 201.321 345.142 207.296 344.411 214.644Z" fill="#585859"/>
<path d="M266.403 144.689L240.169 275.478H235.748C231.77 275.478 228.845 271.317 229.763 266.984L254.4 149.995C255.063 146.884 257.528 144.67 260.385 144.67H266.403V144.689Z" fill="#585859"/>
<path d="M310.389 275.478L305.781 304.548H320.998L325.606 275.478H310.389Z" fill="white"/>
<path d="M283.012 299.548L286.123 294.642C287.228 292.886 289.031 291.855 290.952 291.855H332.641C334.852 291.855 336.875 293.23 337.895 295.425L339.986 299.93C340.973 302.029 339.612 304.568 337.487 304.568H285.307C283.012 304.549 281.686 301.628 283.012 299.548Z" fill="white"/>
<path d="M196.172 304.529H321.411L322.771 299.223C323.621 295.882 321.394 292.561 318.299 292.561H202.735C200.66 292.561 198.841 294.107 198.263 296.34L196.172 304.529Z" fill="white"/>
<path d="M360.381 109.759L304.987 109.72C302.845 109.72 301.094 107.754 301.094 105.349L301.111 67.1357C301.111 64.7307 302.862 62.7646 305.004 62.7646L360.398 62.8028C362.54 62.8028 364.291 64.7689 364.291 67.1739L364.274 105.387C364.274 107.812 362.54 109.759 360.381 109.759Z" fill="#DF615C"/>
<path d="M357.077 102.714L352.027 124.131L343.203 103.993L357.077 102.714Z" fill="#DF615C"/>
<path d="M346.703 82.8043C345.581 90.8211 332.234 100.861 332.234 100.861C332.234 100.861 319.397 90.802 318.666 82.7661C317.867 74.0621 327.048 71.4089 332.812 77.9751C338.882 71.428 347.927 74.1003 346.703 82.8043Z" fill="white"/>
<path d="M414.672 615.13C466.769 615.13 509.001 610.712 509.001 605.262C509.001 599.812 466.769 595.394 414.672 595.394C362.576 595.394 320.344 599.812 320.344 605.262C320.344 610.712 362.576 615.13 414.672 615.13Z" fill="#CED3E6"/>
<path d="M472.432 533.901H353.348C351.086 533.901 349.25 531.956 349.25 529.561V527.562C349.25 525.167 351.086 523.223 353.348 523.223H472.432C474.693 523.223 476.529 525.167 476.529 527.562V529.561C476.529 531.956 474.693 533.901 472.432 533.901Z" fill="#39393B"/>
<path d="M354.846 404.936H471.193C473.131 404.936 474.695 406.592 474.695 408.645V423.789C474.695 425.842 473.131 427.498 471.193 427.498H354.846C352.908 427.498 351.344 425.842 351.344 423.789V408.645C351.344 406.592 352.908 404.936 354.846 404.936Z" fill="#585859"/>
<path d="M382.331 308.96C382.331 308.96 333.279 298.696 319.592 262.448C305.905 226.2 355.96 199.009 382.331 218.475C410.554 239.291 382.331 308.96 382.331 308.96Z" fill="#21B573"/>
<path d="M411.5 404.197C411.075 404.197 410.684 403.855 410.616 403.387C405.923 369.714 386.966 321.275 371.919 286.576C355.579 248.941 340.175 218.906 340.022 218.6C339.784 218.15 339.954 217.573 340.379 217.321C340.804 217.069 341.348 217.249 341.587 217.699C341.74 218.006 357.178 248.095 373.551 285.784C388.666 320.609 407.674 369.228 412.401 403.117C412.469 403.639 412.146 404.107 411.653 404.179C411.585 404.179 411.534 404.197 411.5 404.197Z" fill="#39393B"/>
<path d="M380.484 305.449C380.161 305.449 379.855 305.268 379.702 304.962C358.364 262.88 323.713 232.34 323.373 232.034C322.999 231.71 322.948 231.116 323.254 230.72C323.56 230.324 324.121 230.269 324.495 230.594C324.852 230.9 359.758 261.656 381.266 304.08C381.504 304.53 381.334 305.106 380.909 305.358C380.756 305.413 380.62 305.449 380.484 305.449Z" fill="#39393B"/>
<path d="M381.445 308.473C381.19 308.473 380.952 308.365 380.765 308.148C365.208 288.755 349.26 276.69 338.633 269.992C327.106 262.735 319.166 260.016 319.098 259.998C318.638 259.836 318.366 259.314 318.519 258.809C318.672 258.323 319.166 258.035 319.642 258.197C319.965 258.305 327.82 260.97 339.5 268.335C350.263 275.106 366.398 287.314 382.125 306.924C382.448 307.32 382.397 307.914 382.023 308.257C381.853 308.401 381.632 308.473 381.445 308.473Z" fill="#39393B"/>
<path d="M377.142 297.434C376.768 297.434 376.428 297.182 376.309 296.804C364.339 259.62 368.742 214.44 368.793 213.99C368.844 213.468 369.287 213.108 369.763 213.162C370.256 213.216 370.596 213.684 370.545 214.188C370.494 214.638 366.141 259.421 377.975 296.192C378.128 296.678 377.89 297.218 377.414 297.38C377.329 297.416 377.227 297.434 377.142 297.434Z" fill="#39393B"/>
<path d="M380.148 304.798C379.723 304.798 379.349 304.474 379.281 304.006C375.625 280.471 378.431 261.276 381.44 249.319C384.704 236.336 388.785 229.025 388.955 228.719C389.21 228.269 389.754 228.125 390.179 228.395C390.604 228.665 390.74 229.241 390.485 229.691C390.451 229.763 386.337 237.128 383.14 249.895C380.199 261.654 377.445 280.561 381.032 303.718C381.117 304.222 380.777 304.708 380.301 304.798C380.233 304.78 380.182 304.798 380.148 304.798Z" fill="#39393B"/>
<path d="M434.058 318.431C434.058 318.431 483.603 311.246 499.296 275.934C514.989 240.605 466.532 210.335 439.125 228.108C409.779 247.123 434.058 318.431 434.058 318.431Z" fill="#21B573"/>
<path d="M415.267 401.118C414.774 401.118 414.366 400.685 414.383 400.163C414.57 382.823 418.141 363.069 424.993 341.461C430.467 324.192 438.017 305.699 447.47 286.503C463.537 253.821 479.723 230.07 479.893 229.836C480.182 229.421 480.743 229.313 481.134 229.619C481.525 229.926 481.627 230.52 481.338 230.934C481.185 231.168 465.067 254.829 449.051 287.386C434.293 317.403 416.611 361.322 416.186 400.181C416.152 400.704 415.761 401.118 415.267 401.118Z" fill="#39393B"/>
<path d="M436.155 315.045C436.002 315.045 435.832 315.009 435.696 314.901C435.271 314.631 435.152 314.054 435.407 313.604C459.244 272.602 495.816 244.079 496.19 243.791C496.581 243.485 497.142 243.575 497.431 243.989C497.72 244.403 497.635 244.998 497.244 245.304C496.887 245.592 460.587 273.899 436.937 314.577C436.75 314.883 436.461 315.045 436.155 315.045Z" fill="#39393B"/>
<path d="M435.024 317.998C434.803 317.998 434.582 317.908 434.412 317.746C434.055 317.386 434.038 316.792 434.378 316.413C451.193 297.812 467.974 286.648 479.094 280.562C491.165 273.953 499.139 271.774 499.479 271.684C499.955 271.558 500.431 271.864 500.55 272.368C500.669 272.873 500.38 273.377 499.904 273.503C499.819 273.521 491.743 275.736 479.842 282.254C468.858 288.269 452.281 299.325 435.653 317.71C435.5 317.89 435.262 317.998 435.024 317.998Z" fill="#39393B"/>
<path d="M439.947 307.247C439.828 307.247 439.726 307.229 439.607 307.175C439.148 306.977 438.944 306.437 439.114 305.951C452.988 269.973 451.135 225.01 451.118 224.559C451.101 224.037 451.475 223.605 451.968 223.569C452.444 223.533 452.869 223.947 452.903 224.469C452.92 224.92 454.79 270.297 440.78 306.671C440.627 307.031 440.304 307.247 439.947 307.247Z" fill="#39393B"/>
<path d="M436.532 314.414C436.464 314.414 436.396 314.414 436.328 314.396C435.852 314.288 435.546 313.784 435.665 313.279C440.561 290.375 438.861 271.341 436.583 259.421C434.1 246.492 430.428 238.875 430.394 238.785C430.173 238.316 430.343 237.758 430.768 237.524C431.21 237.29 431.737 237.47 431.958 237.92C432.111 238.226 435.767 245.789 438.3 258.97C440.629 271.107 442.364 290.447 437.399 313.694C437.314 314.108 436.94 314.414 436.532 314.414Z" fill="#39393B"/>
<path d="M414.983 250.076C414.983 250.076 373.004 221.3 372.953 182.261C372.902 143.222 428.908 137.604 446.607 166.019C465.565 196.433 414.983 250.076 414.983 250.076Z" fill="#21B573"/>
<path d="M409.115 350.033C409.047 350.033 408.979 350.033 408.911 350.015C408.435 349.889 408.146 349.385 408.248 348.88C415.661 315.766 414.998 263.329 413.144 225.191C411.138 183.829 407.312 149.868 407.278 149.543C407.227 149.021 407.568 148.553 408.061 148.499C408.537 148.445 408.996 148.805 409.047 149.327C409.081 149.669 412.906 183.685 414.93 225.101C416.8 263.365 417.446 315.982 409.999 349.313C409.88 349.745 409.523 350.033 409.115 350.033Z" fill="#39393B"/>
<path d="M414.841 246.168C414.399 246.168 414.008 245.808 413.957 245.34C408.856 197.874 387.348 155.917 387.127 155.503C386.889 155.053 387.042 154.477 387.484 154.225C387.909 153.973 388.454 154.135 388.692 154.603C388.913 155.017 410.591 197.297 415.725 245.142C415.776 245.664 415.436 246.132 414.943 246.186C414.909 246.168 414.875 246.168 414.841 246.168Z" fill="#39393B"/>
<path d="M414.677 249.337C414.303 249.337 413.963 249.085 413.844 248.689C406.176 224.559 395.584 207.111 388.052 196.721C379.891 185.448 373.464 179.83 373.396 179.776C373.022 179.452 372.954 178.858 373.277 178.462C373.583 178.065 374.144 177.993 374.518 178.335C374.79 178.57 381.132 184.116 389.412 195.532C397.046 206.048 407.758 223.695 415.511 248.094C415.664 248.581 415.426 249.121 414.95 249.283C414.865 249.319 414.779 249.337 414.677 249.337Z" fill="#39393B"/>
<path d="M414.519 237.398C414.502 237.398 414.485 237.398 414.468 237.398C413.975 237.38 413.601 236.93 413.635 236.408C415.522 197.188 435.415 156.943 435.602 156.529C435.84 156.061 436.367 155.898 436.809 156.133C437.251 156.367 437.404 156.943 437.183 157.411C436.979 157.807 417.273 197.693 415.42 236.498C415.386 237.002 414.995 237.398 414.519 237.398Z" fill="#39393B"/>
<path d="M414.738 245.411C414.67 245.411 414.619 245.411 414.551 245.393C414.075 245.285 413.769 244.781 413.871 244.277C418.7 220.976 428.051 204.121 435.056 194.073C442.656 183.161 449.015 177.849 449.287 177.633C449.678 177.309 450.239 177.381 450.528 177.795C450.834 178.209 450.766 178.803 450.375 179.109C450.307 179.164 443.897 184.53 436.433 195.244C429.547 205.13 420.349 221.732 415.605 244.673C415.52 245.123 415.146 245.411 414.738 245.411Z" fill="#39393B"/>
<path d="M466.283 344.99L464.821 349.096L463.902 351.707L461.25 359.162L460.315 361.772L457.595 369.443L456.676 372.036L444.979 404.917H381.084L369.387 372.036L368.469 369.443L365.748 361.772L364.813 359.162L362.161 351.707L361.243 349.096L359.78 344.99C358.777 342.163 360.75 339.156 363.589 339.156H462.491C465.314 339.156 467.286 342.163 466.283 344.99Z" fill="#0875F7"/>
<path d="M464.814 349.096L463.896 351.707H362.154L361.219 349.096H464.814Z" fill="#084FC7"/>
<path d="M461.225 359.162L460.307 361.773H365.723L364.805 359.162H461.225Z" fill="#084FC7"/>
<path d="M457.578 369.444L456.66 372.037H369.387L368.469 369.444H457.578Z" fill="#084FC7"/>
<path d="M395.907 427.48L392.37 439.581L343.047 607.946H333.406L364.673 443.02L367.632 427.48H395.907Z" fill="#39393B"/>
<path d="M492.915 607.946H483.274L432.505 434.593L430.414 427.48H458.689L459.403 431.261L492.915 607.946Z" fill="#39393B"/>
<path d="M472.432 510.69H353.348C351.086 510.69 349.25 508.745 349.25 506.35V504.351C349.25 501.956 351.086 500.012 353.348 500.012H472.415C474.676 500.012 476.512 501.956 476.512 504.351V506.35C476.529 508.745 474.693 510.69 472.432 510.69Z" fill="#585859"/>
<path d="M322.438 105.906C347.904 105.906 368.549 84.3157 368.549 57.6831C368.549 31.0504 347.904 9.46045 322.438 9.46045C296.972 9.46045 276.328 31.0504 276.328 57.6831C276.328 84.3157 296.972 105.906 322.438 105.906Z" fill="#CED3E6"/>
<path d="M322.438 99.6396C347.904 99.6396 368.549 78.0496 368.549 51.417C368.549 24.7843 347.904 3.19434 322.438 3.19434C296.972 3.19434 276.328 24.7843 276.328 51.417C276.328 78.0496 296.972 99.6396 322.438 99.6396Z" fill="#0875F7"/>
<path d="M322.434 90.6181C343.13 90.6181 359.907 73.0672 359.907 51.417C359.907 29.7668 343.13 12.2158 322.434 12.2158C301.738 12.2158 284.961 29.7668 284.961 51.417C284.961 73.0672 301.738 90.6181 322.434 90.6181Z" fill="white"/>
<path d="M359.902 51.417C359.902 52.4614 359.868 53.4878 359.783 54.5142C358.27 34.3464 342.084 18.4102 322.412 18.4102C302.74 18.4102 286.571 34.3464 285.041 54.5142C284.973 53.4878 284.922 52.4614 284.922 51.417C284.922 29.7906 301.737 12.2158 322.395 12.2158C343.087 12.2158 359.902 29.7906 359.902 51.417Z" fill="#CED3E6"/>
<path d="M322.437 55.4858C322.147 55.4858 321.858 55.3418 321.688 55.0897L303.309 29.1956C303.003 28.7635 303.088 28.1513 303.496 27.8271C303.904 27.503 304.499 27.593 304.805 28.0252L322.743 53.289L343.128 43.9253C343.604 43.7093 344.148 43.9253 344.369 44.4295C344.573 44.9337 344.369 45.5099 343.893 45.726L322.828 55.3958C322.692 55.4678 322.556 55.4858 322.437 55.4858Z" fill="#39393B"/>
</svg>
