<svg width="15" height="16" viewBox="0 0 15 16" fill="none" xmlns="http://www.w3.org/2000/svg">
<g clip-path="url(#clip0_8513_2518)">
<path d="M10.3125 0.22998H4.6875C2.09906 0.22998 0 2.32904 0 4.91748V10.5425C0 13.1309 2.09906 15.23 4.6875 15.23H10.3125C12.9009 15.23 15 13.1309 15 10.5425V4.91748C15 2.32904 12.9009 0.22998 10.3125 0.22998ZM13.5938 10.5425C13.5938 12.3519 12.1219 13.8238 10.3125 13.8238H4.6875C2.87813 13.8238 1.40625 12.3519 1.40625 10.5425V4.91748C1.40625 3.10811 2.87813 1.63623 4.6875 1.63623H10.3125C12.1219 1.63623 13.5938 3.10811 13.5938 4.91748V10.5425Z" fill="#B2BBCC"/>
<path d="M7.5 3.97998C5.42906 3.97998 3.75 5.65904 3.75 7.72998C3.75 9.80092 5.42906 11.48 7.5 11.48C9.57094 11.48 11.25 9.80092 11.25 7.72998C11.25 5.65904 9.57094 3.97998 7.5 3.97998ZM7.5 10.0737C6.20813 10.0737 5.15625 9.02185 5.15625 7.72998C5.15625 6.43717 6.20813 5.38623 7.5 5.38623C8.79187 5.38623 9.84375 6.43717 9.84375 7.72998C9.84375 9.02185 8.79187 10.0737 7.5 10.0737Z" fill="#B2BBCC"/>
<path d="M11.5309 4.1986C11.8068 4.1986 12.0307 3.97488 12.0307 3.69891C12.0307 3.42294 11.8068 3.19922 11.5309 3.19922C11.2549 3.19922 11.0312 3.42294 11.0312 3.69891C11.0312 3.97488 11.2549 4.1986 11.5309 4.1986Z" fill="#B2BBCC"/>
</g>
<defs>
<clipPath id="clip0_8513_2518">
<rect width="15" height="15" fill="white" transform="translate(0 0.22998)"/>
</clipPath>
</defs>
</svg>
