<svg width="157" height="53" viewBox="0 0 157 53" fill="none" xmlns="http://www.w3.org/2000/svg">
<g clip-path="url(#clip0_8513_2524)">
<g clip-path="url(#clip1_8513_2524)">
<g clip-path="url(#clip2_8513_2524)">
<path d="M157 0.0898438H0V52.0898H157V0.0898438Z" fill="#1C1B3C"/>
<path d="M14.6016 35.8424V20.3359C14.6016 19.7978 14.9243 19.3235 15.3988 19.1045L24.7473 28.0892L15.3988 37.0738C14.9243 36.8457 14.6016 36.3805 14.6016 35.8424ZM27.7084 30.9351L17.4963 36.6086L25.554 28.8645L27.7084 30.9351ZM30.8878 27.0037C31.2105 27.25 31.4478 27.6331 31.4478 28.0892C31.4478 28.5452 31.239 28.9101 30.9068 29.1655L28.7334 30.3695L26.3607 28.0892L28.7334 25.8088L30.8878 27.0037ZM17.4963 19.5697L27.7084 25.2433L25.554 27.3138L17.4963 19.5697Z" fill="white"/>
<path d="M51.9889 22.2427C51.3076 22.2429 50.6682 22.1171 50.0708 21.8653C49.4828 21.6041 48.9647 21.2449 48.5165 20.7877C48.0777 20.3305 47.7323 19.7986 47.4801 19.192C47.2279 18.5854 47.1018 17.9321 47.1016 17.2321C47.1014 16.5321 47.2272 15.8834 47.4791 15.286C47.7309 14.6792 48.0807 14.1471 48.5286 13.6897C48.9765 13.2322 49.4991 12.8774 50.0963 12.6253C50.7029 12.3731 51.3609 12.2469 52.0702 12.2467C52.8449 12.2465 53.5589 12.3957 54.2124 12.6941C54.8658 12.9926 55.4119 13.4218 55.8507 13.9817L54.9409 14.8919C54.6328 14.444 54.2267 14.1035 53.7227 13.8703C53.2186 13.6277 52.6679 13.5066 52.0706 13.5067C51.3612 13.5069 50.7313 13.6658 50.1807 13.9832C49.6395 14.3007 49.2149 14.7395 48.9071 15.2996C48.6085 15.8597 48.4594 16.5037 48.4596 17.2317C48.4598 17.969 48.614 18.6177 48.9221 19.1776C49.2303 19.7375 49.6457 20.176 50.1685 20.4932C50.6912 20.8104 51.2886 20.9689 51.9606 20.9688C52.6419 20.9686 53.2299 20.8377 53.7245 20.5763C54.2284 20.3148 54.6156 19.932 54.8862 19.428C55.1567 18.9146 55.2919 18.2892 55.2917 17.5519L56.0898 18.1256L51.8898 18.1268L51.8895 16.9228L56.6495 16.9215V17.1175C56.6499 18.2468 56.4494 19.1942 56.0483 19.9597C55.6565 20.7158 55.106 21.2852 54.3968 21.6681C53.6969 22.051 52.8943 22.2425 51.9889 22.2427ZM61.4171 22.2402C60.7544 22.2404 60.157 22.0912 59.6249 21.7927C59.0928 21.4848 58.6727 21.0696 58.3646 20.547C58.0565 20.0244 57.9023 19.4318 57.9021 18.7692C57.9019 18.1158 58.0511 17.5278 58.3496 17.005C58.6575 16.4823 59.0681 16.0715 59.5813 15.7727C60.1039 15.4646 60.6872 15.3104 61.3312 15.3102C61.9472 15.3101 62.4886 15.4499 62.9553 15.7298C63.4314 16.0097 63.8001 16.3969 64.0616 16.8915C64.3324 17.3861 64.4679 17.946 64.4681 18.5714C64.4681 18.6647 64.4634 18.7674 64.4541 18.8794C64.4448 18.9821 64.4262 19.1034 64.3982 19.2434L58.7842 19.2449L58.784 18.1949L63.726 18.1936L63.2641 18.5997C63.264 18.1517 63.1845 17.7737 63.0258 17.4658C62.867 17.1485 62.6429 16.9059 62.3536 16.738C62.0642 16.5607 61.7142 16.4721 61.3035 16.4722C60.8742 16.4724 60.4962 16.5658 60.1696 16.7525C59.843 16.9393 59.591 17.2007 59.4138 17.5367C59.2365 17.8728 59.148 18.2695 59.1481 18.7268C59.1482 19.1935 59.2417 19.6041 59.4284 19.9587C59.6152 20.304 59.8813 20.5746 60.2267 20.7705C60.572 20.9571 60.9687 21.0503 61.4167 21.0502C61.7901 21.0501 62.1307 20.9847 62.4387 20.8539C62.756 20.7232 63.0266 20.5271 63.2505 20.2657L64.0627 21.0915C63.7455 21.4649 63.3536 21.7497 62.887 21.9458C62.4297 22.1419 61.9397 22.2401 61.4171 22.2402ZM66.8135 22.0987L66.8109 12.6627L68.0709 12.6624L68.0735 22.0984L66.8135 22.0987ZM65.174 16.5972L65.1737 15.4492L69.7097 15.448L69.71 16.596L65.174 16.5972ZM74.3619 22.0967L74.3593 12.3807L75.6753 12.3804L75.6779 22.0964L74.3619 22.0967ZM78.9092 22.0955L78.9067 12.6595L80.1667 12.6591L80.1692 22.0951L78.9092 22.0955ZM77.2698 16.5939L77.2695 15.4459L81.8055 15.4447L81.8058 16.5927L77.2698 16.5939ZM90.8817 22.2323C90.191 22.2324 89.547 22.1066 88.9496 21.8548C88.3522 21.5936 87.8294 21.2344 87.3813 20.7772C86.9332 20.3107 86.583 19.7741 86.3309 19.1675C86.088 18.5609 85.9665 17.9123 85.9663 17.2216C85.9661 16.5216 86.0873 15.8729 86.3298 15.2755C86.5816 14.6688 86.9268 14.1367 87.3654 13.6792C87.8133 13.2218 88.3312 12.8669 88.9191 12.6148C89.5164 12.3626 90.1603 12.2365 90.851 12.2363C91.5417 12.2361 92.181 12.3619 92.7691 12.6137C93.3665 12.8656 93.8893 13.2201 94.3374 13.6773C94.7855 14.1345 95.1356 14.6664 95.3878 15.273C95.64 15.8796 95.7662 16.5329 95.7663 17.2329C95.7665 17.9236 95.6407 18.5723 95.3889 19.179C95.137 19.7858 94.7872 20.3179 94.3393 20.7753C93.9008 21.2328 93.3829 21.5923 92.7856 21.8537C92.1977 22.1059 91.563 22.2321 90.8817 22.2323ZM90.8533 20.9723C91.5533 20.9721 92.1646 20.8132 92.6872 20.4958C93.2191 20.169 93.639 19.7255 93.9469 19.1654C94.2547 18.596 94.4085 17.9473 94.4083 17.2193C94.4082 16.678 94.3194 16.1833 94.1419 15.7354C93.9645 15.2781 93.717 14.8815 93.3996 14.5456C93.0822 14.2097 92.7088 13.9531 92.2794 13.7759C91.85 13.5893 91.374 13.4961 90.8513 13.4963C90.1607 13.4965 89.5494 13.6553 89.0175 13.9728C88.4949 14.2902 88.0797 14.729 87.7718 15.2891C87.4733 15.8492 87.3241 16.4932 87.3243 17.2212C87.3245 17.7626 87.4086 18.2665 87.5767 18.7331C87.7542 19.1904 87.997 19.587 88.3051 19.923C88.6225 20.2495 88.9959 20.5061 89.4253 20.6927C89.864 20.8792 90.34 20.9724 90.8533 20.9723ZM102.193 22.0892L102.192 18.2112C102.192 17.7072 102.033 17.2919 101.715 16.9653C101.398 16.6388 100.987 16.4755 100.483 16.4757C100.147 16.4758 99.8487 16.5505 99.5874 16.6999C99.3261 16.8493 99.1209 17.0547 98.9716 17.3161C98.8223 17.5775 98.7477 17.8761 98.7478 18.2121L98.2298 17.9183C98.2296 17.4143 98.3415 16.9662 98.5654 16.5742C98.7893 16.1821 99.1019 15.874 99.5031 15.6499C99.9044 15.4165 100.357 15.2997 100.861 15.2996C101.365 15.2994 101.808 15.4253 102.191 15.6772C102.583 15.9291 102.891 16.2604 103.115 16.671C103.339 17.0722 103.451 17.5015 103.452 17.9589L103.453 22.0889L102.193 22.0892ZM97.4889 22.0905L97.4871 15.4405L98.7471 15.4401L98.7489 22.0901L97.4889 22.0905Z" fill="#B2BBCC"/>
<path d="M52.4754 40.2498C51.7074 40.2498 50.9821 40.1005 50.2994 39.8018C49.6167 39.5031 49.0194 39.0925 48.5074 38.5698C47.9954 38.0365 47.5901 37.4231 47.2914 36.7298C47.0034 36.0258 46.8594 35.2738 46.8594 34.4738C46.8594 33.6738 47.0034 32.9271 47.2914 32.2338C47.5901 31.5405 47.9954 30.9325 48.5074 30.4098C49.0301 29.8765 49.6381 29.4658 50.3314 29.1778C51.0354 28.8791 51.7927 28.7298 52.6034 28.7298C53.4887 28.7298 54.3101 28.9005 55.0674 29.2418C55.8247 29.5831 56.4594 30.0685 56.9714 30.6978L55.7234 31.9458C55.3927 31.4765 54.9501 31.1191 54.3954 30.8738C53.8407 30.6178 53.2434 30.4898 52.6034 30.4898C51.8354 30.4898 51.1581 30.6605 50.5714 31.0018C49.9954 31.3325 49.5474 31.7965 49.2274 32.3938C48.9074 32.9911 48.7474 33.6845 48.7474 34.4738C48.7474 35.2631 48.9074 35.9618 49.2274 36.5698C49.5581 37.1671 50.0007 37.6365 50.5554 37.9778C51.1101 38.3191 51.7394 38.4898 52.4434 38.4898C53.1901 38.4898 53.8301 38.3565 54.3634 38.0898C54.9074 37.8125 55.3234 37.4071 55.6114 36.8738C55.8994 36.3298 56.0434 35.6631 56.0434 34.8738L57.1954 35.7058H52.4114V34.0258H57.9474V34.2818C57.9474 35.6151 57.7074 36.7245 57.2274 37.6098C56.7581 38.4951 56.1127 39.1565 55.2914 39.5938C54.4701 40.0311 53.5314 40.2498 52.4754 40.2498ZM63.2188 40.2498C62.4721 40.2498 61.7948 40.0738 61.1868 39.7218C60.5788 39.3591 60.0934 38.8738 59.7308 38.2658C59.3788 37.6578 59.2028 36.9805 59.2028 36.2338C59.2028 35.4871 59.3788 34.8151 59.7308 34.2178C60.0934 33.6205 60.5788 33.1458 61.1868 32.7938C61.7948 32.4311 62.4721 32.2498 63.2188 32.2498C63.9761 32.2498 64.6588 32.4258 65.2668 32.7778C65.8748 33.1298 66.3548 33.6098 66.7068 34.2178C67.0694 34.8151 67.2508 35.4871 67.2508 36.2338C67.2508 36.9805 67.0694 37.6578 66.7068 38.2658C66.3548 38.8738 65.8748 39.3591 65.2668 39.7218C64.6588 40.0738 63.9761 40.2498 63.2188 40.2498ZM63.2188 38.5538C63.6561 38.5538 64.0401 38.4578 64.3708 38.2658C64.7121 38.0631 64.9734 37.7858 65.1548 37.4338C65.3468 37.0818 65.4428 36.6818 65.4428 36.2338C65.4428 35.7858 65.3468 35.3911 65.1548 35.0498C64.9628 34.7085 64.7014 34.4418 64.3708 34.2498C64.0401 34.0471 63.6561 33.9458 63.2188 33.9458C62.7921 33.9458 62.4081 34.0471 62.0668 34.2498C61.7361 34.4418 61.4748 34.7085 61.2828 35.0498C61.1014 35.3911 61.0108 35.7858 61.0108 36.2338C61.0108 36.6818 61.1014 37.0818 61.2828 37.4338C61.4748 37.7858 61.7361 38.0631 62.0668 38.2658C62.4081 38.4578 62.7921 38.5538 63.2188 38.5538ZM72.3944 40.2498C71.6477 40.2498 70.9704 40.0738 70.3624 39.7218C69.7544 39.3591 69.2691 38.8738 68.9064 38.2658C68.5544 37.6578 68.3784 36.9805 68.3784 36.2338C68.3784 35.4871 68.5544 34.8151 68.9064 34.2178C69.2691 33.6205 69.7544 33.1458 70.3624 32.7938C70.9704 32.4311 71.6477 32.2498 72.3944 32.2498C73.1517 32.2498 73.8344 32.4258 74.4424 32.7778C75.0504 33.1298 75.5304 33.6098 75.8824 34.2178C76.2451 34.8151 76.4264 35.4871 76.4264 36.2338C76.4264 36.9805 76.2451 37.6578 75.8824 38.2658C75.5304 38.8738 75.0504 39.3591 74.4424 39.7218C73.8344 40.0738 73.1517 40.2498 72.3944 40.2498ZM72.3944 38.5538C72.8317 38.5538 73.2157 38.4578 73.5464 38.2658C73.8877 38.0631 74.1491 37.7858 74.3304 37.4338C74.5224 37.0818 74.6184 36.6818 74.6184 36.2338C74.6184 35.7858 74.5224 35.3911 74.3304 35.0498C74.1384 34.7085 73.8771 34.4418 73.5464 34.2498C73.2157 34.0471 72.8317 33.9458 72.3944 33.9458C71.9677 33.9458 71.5837 34.0471 71.2424 34.2498C70.9117 34.4418 70.6504 34.7085 70.4584 35.0498C70.2771 35.3911 70.1864 35.7858 70.1864 36.2338C70.1864 36.6818 70.2771 37.0818 70.4584 37.4338C70.6504 37.7858 70.9117 38.0631 71.2424 38.2658C71.5837 38.4578 71.9677 38.5538 72.3944 38.5538ZM81.25 43.4498C80.4394 43.4498 79.73 43.3005 79.122 43.0018C78.514 42.7138 78.0234 42.3031 77.65 41.7698L78.802 40.6178C79.1114 41.0018 79.4634 41.2898 79.858 41.4818C80.2527 41.6738 80.7274 41.7698 81.282 41.7698C81.9754 41.7698 82.5247 41.5885 82.93 41.2258C83.3354 40.8738 83.538 40.3885 83.538 39.7698V37.8818L83.842 36.1858L83.538 34.4738V32.4098H85.298V39.7698C85.298 40.5058 85.1274 41.1458 84.786 41.6898C84.4447 42.2445 83.97 42.6765 83.362 42.9858C82.754 43.2951 82.05 43.4498 81.25 43.4498ZM81.17 39.9298C80.4874 39.9298 79.8687 39.7645 79.314 39.4338C78.77 39.0925 78.338 38.6285 78.018 38.0418C77.7087 37.4551 77.554 36.7991 77.554 36.0738C77.554 35.3485 77.7087 34.6978 78.018 34.1218C78.338 33.5458 78.77 33.0925 79.314 32.7618C79.8687 32.4205 80.4874 32.2498 81.17 32.2498C81.778 32.2498 82.3114 32.3725 82.77 32.6178C83.2287 32.8631 83.586 33.2045 83.842 33.6418C84.098 34.0685 84.226 34.5698 84.226 35.1458V37.0338C84.226 37.5991 84.0927 38.1005 83.826 38.5378C83.57 38.9751 83.2127 39.3165 82.754 39.5618C82.2954 39.8071 81.7674 39.9298 81.17 39.9298ZM81.522 38.2658C81.9487 38.2658 82.322 38.1751 82.642 37.9938C82.962 37.8125 83.2074 37.5618 83.378 37.2418C83.5594 36.9111 83.65 36.5271 83.65 36.0898C83.65 35.6525 83.5594 35.2738 83.378 34.9538C83.2074 34.6231 82.962 34.3671 82.642 34.1858C82.322 34.0045 81.9487 33.9138 81.522 33.9138C81.0954 33.9138 80.7167 34.0045 80.386 34.1858C80.066 34.3671 79.8154 34.6231 79.634 34.9538C79.4527 35.2738 79.362 35.6525 79.362 36.0898C79.362 36.5165 79.4527 36.8951 79.634 37.2258C79.8154 37.5565 80.066 37.8125 80.386 37.9938C80.7167 38.1751 81.0954 38.2658 81.522 38.2658ZM87.4132 40.0898V28.5698H89.1732V40.0898H87.4132ZM94.8599 40.2498C94.0919 40.2498 93.3986 40.0791 92.7799 39.7378C92.1719 39.3858 91.6866 38.9058 91.3239 38.2978C90.9719 37.6898 90.7959 37.0071 90.7959 36.2498C90.7959 35.4925 90.9719 34.8151 91.3239 34.2178C91.6759 33.6098 92.1506 33.1298 92.7479 32.7778C93.3559 32.4258 94.0279 32.2498 94.7639 32.2498C95.4786 32.2498 96.1079 32.4151 96.6519 32.7458C97.2066 33.0765 97.6386 33.5298 97.9479 34.1058C98.2679 34.6818 98.4279 35.3378 98.4279 36.0738C98.4279 36.2018 98.4172 36.3351 98.3959 36.4738C98.3852 36.6018 98.3639 36.7458 98.3319 36.9058H92.0279V35.4658H97.4199L96.7639 36.0418C96.7426 35.5725 96.6519 35.1778 96.4919 34.8578C96.3319 34.5378 96.1026 34.2925 95.8039 34.1218C95.5159 33.9511 95.1586 33.8658 94.7319 33.8658C94.2839 33.8658 93.8946 33.9618 93.5639 34.1538C93.2332 34.3458 92.9772 34.6178 92.7959 34.9698C92.6146 35.3111 92.5239 35.7218 92.5239 36.2018C92.5239 36.6818 92.6199 37.1031 92.8119 37.4658C93.0039 37.8285 93.2759 38.1111 93.6279 38.3138C93.9799 38.5058 94.3852 38.6018 94.8439 38.6018C95.2386 38.6018 95.6012 38.5325 95.9319 38.3938C96.2732 38.2551 96.5612 38.0525 96.7959 37.7858L97.9159 38.9218C97.5426 39.3591 97.0892 39.6898 96.5559 39.9138C96.0226 40.1378 95.4572 40.2498 94.8599 40.2498ZM104.865 35.8658V34.2658H107.665C108.05 34.2658 108.386 34.1911 108.673 34.0418C108.972 33.8818 109.207 33.6631 109.377 33.3858C109.548 33.0978 109.633 32.7618 109.633 32.3778C109.633 31.9938 109.548 31.6631 109.377 31.3858C109.207 31.0978 108.972 30.8791 108.673 30.7298C108.386 30.5698 108.05 30.4898 107.665 30.4898H104.865V28.8898H107.762C108.465 28.8898 109.095 29.0338 109.65 29.3218C110.215 29.6098 110.658 30.0151 110.977 30.5378C111.308 31.0605 111.473 31.6738 111.473 32.3778C111.473 33.0818 111.308 33.6951 110.977 34.2178C110.658 34.7405 110.215 35.1458 109.65 35.4338C109.095 35.7218 108.465 35.8658 107.762 35.8658H104.865ZM103.601 40.0898V28.8898H105.441V40.0898H103.601ZM113.178 40.0898V28.5698H114.938V40.0898H113.178ZM120.272 40.2498C119.579 40.2498 118.95 40.0738 118.384 39.7218C117.83 39.3698 117.387 38.8951 117.056 38.2978C116.736 37.6898 116.576 37.0125 116.576 36.2658C116.576 35.5085 116.736 34.8311 117.056 34.2338C117.387 33.6258 117.83 33.1458 118.384 32.7938C118.95 32.4311 119.579 32.2498 120.272 32.2498C120.859 32.2498 121.376 32.3778 121.824 32.6338C122.283 32.8791 122.646 33.2205 122.912 33.6578C123.179 34.0951 123.312 34.5911 123.312 35.1458V37.3538C123.312 37.9085 123.179 38.4045 122.912 38.8418C122.656 39.2791 122.299 39.6258 121.84 39.8818C121.382 40.1271 120.859 40.2498 120.272 40.2498ZM120.56 38.5858C121.211 38.5858 121.734 38.3671 122.128 37.9298C122.534 37.4925 122.736 36.9325 122.736 36.2498C122.736 35.7911 122.646 35.3858 122.464 35.0338C122.283 34.6818 122.027 34.4098 121.696 34.2178C121.376 34.0151 120.998 33.9138 120.56 33.9138C120.134 33.9138 119.755 34.0151 119.424 34.2178C119.104 34.4098 118.848 34.6818 118.656 35.0338C118.475 35.3858 118.384 35.7911 118.384 36.2498C118.384 36.7085 118.475 37.1138 118.656 37.4658C118.848 37.8178 119.104 38.0951 119.424 38.2978C119.755 38.4898 120.134 38.5858 120.56 38.5858ZM122.624 40.0898V38.0258L122.928 36.1538L122.624 34.2978V32.4098H124.385V40.0898H122.624ZM128.978 40.1698L125.698 32.4098H127.634L129.874 38.1058H129.314L131.682 32.4098H133.634L130.066 40.1698H128.978ZM126.69 43.2898L129.074 38.3778L130.066 40.1698L128.642 43.2898H126.69Z" fill="white"/>
</g>
</g>
</g>
<defs>
<clipPath id="clip0_8513_2524">
<rect y="0.0898438" width="157" height="52" rx="4" fill="white"/>
</clipPath>
<clipPath id="clip1_8513_2524">
<rect width="157" height="52" fill="white" transform="translate(0 0.0898438)"/>
</clipPath>
<clipPath id="clip2_8513_2524">
<rect width="157" height="52" fill="white" transform="translate(0 0.0898438)"/>
</clipPath>
</defs>
</svg>
