<svg width="21" height="18" viewBox="0 0 21 18" fill="none" xmlns="http://www.w3.org/2000/svg">
<g clip-path="url(#clip0_8513_2522)">
<path d="M20.1075 1.81601C19.5379 0.660903 18.9197 0.448434 17.661 0.367636C16.4036 0.270379 13.2418 0.22998 10.5026 0.22998C7.75819 0.22998 4.59506 0.27038 3.339 0.36614C2.08294 0.448434 1.46344 0.659406 0.888563 1.81601C0.301875 2.96963 0 4.95666 0 8.45492C0 8.45791 0 8.45941 0 8.45941C0 8.4624 0 8.4639 0 8.4639V8.46689C0 11.9502 0.301875 13.9522 0.888563 15.0938C1.46344 16.249 2.08162 16.4584 3.33769 16.5557C4.59506 16.6395 7.75819 16.6889 10.5026 16.6889C13.2418 16.6889 16.4036 16.6395 17.6623 16.5572C18.921 16.4599 19.5392 16.2504 20.1088 15.0953C20.7008 13.9537 21 11.9517 21 8.46838C21 8.46838 21 8.4639 21 8.4609V8.45641C21 4.95666 20.7008 2.96963 20.1075 1.81601ZM7.875 12.9482V3.97063L14.4375 8.45941L7.875 12.9482Z" fill="#B2BBCC"/>
</g>
<defs>
<clipPath id="clip0_8513_2522">
<rect width="21" height="17" fill="white" transform="translate(0 0.22998)"/>
</clipPath>
</defs>
</svg>
