<svg width="161" height="52" viewBox="0 0 161 52" fill="none" xmlns="http://www.w3.org/2000/svg">
<g clip-path="url(#clip0_8513_2531)">
<g clip-path="url(#clip1_8513_2531)">
<g clip-path="url(#clip2_8513_2531)">
<path d="M161 0.589844H0V51.5898H161V0.589844Z" fill="#1C1B3C"/>
<path d="M31.1289 34.3383C30.0035 35.9502 28.8103 37.5231 26.9934 37.5491C25.1766 37.5881 24.5935 36.5221 22.5326 36.5221C20.4581 36.5221 19.8208 37.5231 18.0988 37.5881C16.3226 37.6531 14.9803 35.8722 13.8414 34.2993C11.5228 31.0885 9.7466 25.1739 12.133 21.1962C13.3126 19.2203 15.4278 17.9724 17.7192 17.9334C19.4547 17.9074 21.1089 19.0643 22.1801 19.0643C23.2376 19.0643 25.2444 17.6734 27.346 17.8814C28.2273 17.9204 30.695 18.2194 32.2814 20.4552C32.1594 20.5332 29.3391 22.1191 29.3662 25.4079C29.4069 29.3336 32.9593 30.6465 33 30.6595C32.9593 30.7505 32.4305 32.5314 31.1289 34.3383ZM23.3868 13.5397C24.3766 12.4607 26.0172 11.6418 27.3731 11.5898C27.5494 13.1107 26.9121 14.6446 25.963 15.7365C25.0274 16.8415 23.4817 17.6994 21.9631 17.5824C21.7597 16.0875 22.519 14.5276 23.3868 13.5397Z" fill="white"/>
<path d="M47.9237 19.59V18.558H50.2397C50.8557 18.558 51.3957 18.426 51.8597 18.162C52.3237 17.89 52.6837 17.518 52.9397 17.046C53.2037 16.574 53.3357 16.03 53.3357 15.414C53.3357 14.806 53.2037 14.266 52.9397 13.794C52.6757 13.322 52.3117 12.954 51.8477 12.69C51.3837 12.426 50.8477 12.294 50.2397 12.294H47.9357V11.262H50.2637C50.8717 11.262 51.4317 11.366 51.9437 11.574C52.4637 11.782 52.9117 12.074 53.2877 12.45C53.6717 12.826 53.9677 13.266 54.1757 13.77C54.3917 14.274 54.4997 14.826 54.4997 15.426C54.4997 16.018 54.3917 16.57 54.1757 17.082C53.9677 17.586 53.6757 18.026 53.2997 18.402C52.9237 18.778 52.4757 19.07 51.9557 19.278C51.4437 19.486 50.8877 19.59 50.2877 19.59H47.9237ZM47.1797 19.59V11.262H48.3077V19.59H47.1797ZM58.5945 19.71C58.0345 19.71 57.5305 19.578 57.0825 19.314C56.6345 19.05 56.2785 18.694 56.0145 18.246C55.7505 17.79 55.6185 17.282 55.6185 16.722C55.6185 16.17 55.7505 15.674 56.0145 15.234C56.2785 14.786 56.6345 14.43 57.0825 14.166C57.5305 13.902 58.0345 13.77 58.5945 13.77C59.1465 13.77 59.6465 13.902 60.0945 14.166C60.5505 14.422 60.9105 14.774 61.1745 15.222C61.4385 15.67 61.5705 16.17 61.5705 16.722C61.5705 17.282 61.4385 17.79 61.1745 18.246C60.9105 18.694 60.5505 19.05 60.0945 19.314C59.6465 19.578 59.1465 19.71 58.5945 19.71ZM58.5945 18.666C58.9545 18.666 59.2745 18.582 59.5545 18.414C59.8345 18.246 60.0545 18.018 60.2145 17.73C60.3745 17.434 60.4545 17.098 60.4545 16.722C60.4545 16.354 60.3705 16.026 60.2025 15.738C60.0425 15.45 59.8225 15.226 59.5425 15.066C59.2705 14.898 58.9545 14.814 58.5945 14.814C58.2345 14.814 57.9145 14.898 57.6345 15.066C57.3545 15.226 57.1345 15.45 56.9745 15.738C56.8145 16.026 56.7345 16.354 56.7345 16.722C56.7345 17.098 56.8145 17.434 56.9745 17.73C57.1345 18.018 57.3545 18.246 57.6345 18.414C57.9145 18.582 58.2345 18.666 58.5945 18.666ZM64.3753 19.59L62.1193 13.89H63.2473L64.8793 18.33H64.5193L66.1393 13.89H66.7633L68.3833 18.33H68.0233L69.6553 13.89H70.7833L68.5393 19.59H67.9033L66.2593 15.282H66.6553L64.9993 19.59H64.3753ZM75.8953 19.59V16.266C75.8953 15.834 75.7593 15.478 75.4873 15.198C75.2153 14.918 74.8633 14.778 74.4313 14.778C74.1433 14.778 73.8873 14.842 73.6633 14.97C73.4393 15.098 73.2633 15.274 73.1353 15.498C73.0073 15.722 72.9433 15.978 72.9433 16.266L72.4993 16.014C72.4993 15.582 72.5953 15.198 72.7873 14.862C72.9793 14.526 73.2473 14.262 73.5913 14.07C73.9353 13.87 74.3233 13.77 74.7553 13.77C75.1873 13.77 75.5673 13.878 75.8953 14.094C76.2313 14.31 76.4953 14.594 76.6873 14.946C76.8793 15.29 76.9753 15.658 76.9753 16.05V19.59H75.8953ZM71.8633 19.59V13.89H72.9433V19.59H71.8633ZM78.5575 19.59V11.022H79.6375V19.59H78.5575ZM83.9417 19.71C83.3817 19.71 82.8777 19.578 82.4297 19.314C81.9817 19.05 81.6257 18.694 81.3617 18.246C81.0977 17.79 80.9657 17.282 80.9657 16.722C80.9657 16.17 81.0977 15.674 81.3617 15.234C81.6257 14.786 81.9817 14.43 82.4297 14.166C82.8777 13.902 83.3817 13.77 83.9417 13.77C84.4937 13.77 84.9937 13.902 85.4417 14.166C85.8977 14.422 86.2577 14.774 86.5217 15.222C86.7857 15.67 86.9177 16.17 86.9177 16.722C86.9177 17.282 86.7857 17.79 86.5217 18.246C86.2577 18.694 85.8977 19.05 85.4417 19.314C84.9937 19.578 84.4937 19.71 83.9417 19.71ZM83.9417 18.666C84.3017 18.666 84.6217 18.582 84.9017 18.414C85.1817 18.246 85.4017 18.018 85.5617 17.73C85.7217 17.434 85.8017 17.098 85.8017 16.722C85.8017 16.354 85.7177 16.026 85.5497 15.738C85.3897 15.45 85.1697 15.226 84.8897 15.066C84.6177 14.898 84.3017 14.814 83.9417 14.814C83.5817 14.814 83.2617 14.898 82.9817 15.066C82.7017 15.226 82.4817 15.45 82.3217 15.738C82.1617 16.026 82.0817 16.354 82.0817 16.722C82.0817 17.098 82.1617 17.434 82.3217 17.73C82.4817 18.018 82.7017 18.246 82.9817 18.414C83.2617 18.582 83.5817 18.666 83.9417 18.666ZM90.6785 19.71C90.1585 19.71 89.6865 19.582 89.2625 19.326C88.8385 19.062 88.5025 18.706 88.2545 18.258C88.0145 17.81 87.8945 17.306 87.8945 16.746C87.8945 16.186 88.0145 15.682 88.2545 15.234C88.5025 14.786 88.8345 14.43 89.2505 14.166C89.6745 13.902 90.1505 13.77 90.6785 13.77C91.1105 13.77 91.4945 13.862 91.8305 14.046C92.1745 14.222 92.4505 14.47 92.6585 14.79C92.8665 15.102 92.9825 15.466 93.0065 15.882V17.598C92.9825 18.006 92.8665 18.37 92.6585 18.69C92.4585 19.01 92.1865 19.262 91.8425 19.446C91.5065 19.622 91.1185 19.71 90.6785 19.71ZM90.8585 18.69C91.3945 18.69 91.8265 18.51 92.1545 18.15C92.4825 17.782 92.6465 17.314 92.6465 16.746C92.6465 16.354 92.5705 16.014 92.4185 15.726C92.2745 15.43 92.0665 15.202 91.7945 15.042C91.5225 14.874 91.2065 14.79 90.8465 14.79C90.4865 14.79 90.1665 14.874 89.8865 15.042C89.6145 15.21 89.3985 15.442 89.2385 15.738C89.0865 16.026 89.0105 16.358 89.0105 16.734C89.0105 17.118 89.0865 17.458 89.2385 17.754C89.3985 18.042 89.6185 18.27 89.8985 18.438C90.1785 18.606 90.4985 18.69 90.8585 18.69ZM92.5745 19.59V18.054L92.7785 16.662L92.5745 15.282V13.89H93.6665V19.59H92.5745ZM97.7709 19.71C97.2429 19.71 96.7709 19.582 96.3549 19.326C95.9389 19.062 95.6069 18.706 95.3589 18.258C95.1189 17.81 94.9989 17.306 94.9989 16.746C94.9989 16.186 95.1189 15.682 95.3589 15.234C95.6069 14.786 95.9389 14.43 96.3549 14.166C96.7709 13.902 97.2429 13.77 97.7709 13.77C98.1949 13.77 98.5789 13.862 98.9229 14.046C99.2669 14.222 99.5429 14.47 99.7509 14.79C99.9669 15.102 100.086 15.466 100.11 15.882V17.598C100.086 18.006 99.9709 18.37 99.7629 18.69C99.5549 19.01 99.2789 19.262 98.9349 19.446C98.5909 19.622 98.2029 19.71 97.7709 19.71ZM97.9509 18.69C98.3109 18.69 98.6229 18.606 98.8869 18.438C99.1589 18.27 99.3709 18.042 99.5229 17.754C99.6749 17.458 99.7509 17.122 99.7509 16.746C99.7509 16.354 99.6709 16.014 99.5109 15.726C99.3589 15.438 99.1469 15.21 98.8749 15.042C98.6109 14.874 98.2989 14.79 97.9389 14.79C97.5789 14.79 97.2629 14.874 96.9909 15.042C96.7189 15.21 96.5029 15.442 96.3429 15.738C96.1909 16.026 96.1149 16.358 96.1149 16.734C96.1149 17.118 96.1909 17.458 96.3429 17.754C96.5029 18.042 96.7189 18.27 96.9909 18.438C97.2709 18.606 97.5909 18.69 97.9509 18.69ZM100.77 19.59H99.6789V18.054L99.8829 16.662L99.6789 15.282V11.022H100.77V19.59ZM109.063 19.71C108.471 19.71 107.919 19.602 107.407 19.386C106.895 19.162 106.447 18.854 106.063 18.462C105.679 18.062 105.379 17.602 105.163 17.082C104.955 16.562 104.851 16.006 104.851 15.414C104.851 14.814 104.955 14.258 105.163 13.746C105.379 13.226 105.675 12.77 106.051 12.378C106.435 11.986 106.879 11.682 107.383 11.466C107.895 11.25 108.447 11.142 109.039 11.142C109.631 11.142 110.179 11.25 110.683 11.466C111.195 11.682 111.643 11.986 112.027 12.378C112.411 12.77 112.711 13.226 112.927 13.746C113.143 14.266 113.251 14.826 113.251 15.426C113.251 16.018 113.143 16.574 112.927 17.094C112.711 17.614 112.411 18.07 112.027 18.462C111.651 18.854 111.207 19.162 110.695 19.386C110.191 19.602 109.647 19.71 109.063 19.71ZM109.039 18.63C109.639 18.63 110.163 18.494 110.611 18.222C111.067 17.942 111.427 17.562 111.691 17.082C111.955 16.594 112.087 16.038 112.087 15.414C112.087 14.95 112.011 14.526 111.859 14.142C111.707 13.75 111.495 13.41 111.223 13.122C110.951 12.834 110.631 12.614 110.263 12.462C109.895 12.302 109.487 12.222 109.039 12.222C108.447 12.222 107.923 12.358 107.467 12.63C107.019 12.902 106.663 13.278 106.399 13.758C106.143 14.238 106.015 14.79 106.015 15.414C106.015 15.878 106.087 16.31 106.231 16.71C106.383 17.102 106.591 17.442 106.855 17.73C107.127 18.01 107.447 18.23 107.815 18.39C108.191 18.55 108.599 18.63 109.039 18.63ZM118.758 19.59V16.266C118.758 15.834 118.622 15.478 118.35 15.198C118.078 14.918 117.726 14.778 117.294 14.778C117.006 14.778 116.75 14.842 116.526 14.97C116.302 15.098 116.126 15.274 115.998 15.498C115.87 15.722 115.806 15.978 115.806 16.266L115.362 16.014C115.362 15.582 115.458 15.198 115.65 14.862C115.842 14.526 116.11 14.262 116.454 14.07C116.798 13.87 117.186 13.77 117.618 13.77C118.05 13.77 118.43 13.878 118.758 14.094C119.094 14.31 119.358 14.594 119.55 14.946C119.742 15.29 119.838 15.658 119.838 16.05V19.59H118.758ZM114.726 19.59V13.89H115.806V19.59H114.726ZM126.249 19.59V11.502H127.377V19.59H126.249ZM123.417 12.294V11.262H130.197V12.294H123.417ZM135.501 19.59V16.266C135.501 15.834 135.365 15.478 135.093 15.198C134.821 14.918 134.469 14.778 134.037 14.778C133.749 14.778 133.493 14.842 133.269 14.97C133.045 15.098 132.869 15.274 132.741 15.498C132.613 15.722 132.549 15.978 132.549 16.266L132.105 16.014C132.105 15.582 132.201 15.198 132.393 14.862C132.585 14.526 132.853 14.262 133.197 14.07C133.541 13.87 133.929 13.77 134.361 13.77C134.793 13.77 135.173 13.866 135.501 14.058C135.837 14.25 136.101 14.518 136.293 14.862C136.485 15.206 136.581 15.602 136.581 16.05V19.59H135.501ZM131.469 19.59V11.022H132.549V19.59H131.469ZM140.803 19.71C140.235 19.71 139.723 19.582 139.267 19.326C138.811 19.062 138.451 18.706 138.187 18.258C137.923 17.81 137.791 17.302 137.791 16.734C137.791 16.174 137.919 15.67 138.175 15.222C138.439 14.774 138.791 14.422 139.231 14.166C139.679 13.902 140.179 13.77 140.731 13.77C141.259 13.77 141.723 13.89 142.123 14.13C142.531 14.37 142.847 14.702 143.071 15.126C143.303 15.55 143.419 16.03 143.419 16.566C143.419 16.646 143.415 16.734 143.407 16.83C143.399 16.918 143.383 17.022 143.359 17.142H138.547V16.242H142.783L142.387 16.59C142.387 16.206 142.319 15.882 142.183 15.618C142.047 15.346 141.855 15.138 141.607 14.994C141.359 14.842 141.059 14.766 140.707 14.766C140.339 14.766 140.015 14.846 139.735 15.006C139.455 15.166 139.239 15.39 139.087 15.678C138.935 15.966 138.859 16.306 138.859 16.698C138.859 17.098 138.939 17.45 139.099 17.754C139.259 18.05 139.487 18.282 139.783 18.45C140.079 18.61 140.419 18.69 140.803 18.69C141.123 18.69 141.415 18.634 141.679 18.522C141.951 18.41 142.183 18.242 142.375 18.018L143.071 18.726C142.799 19.046 142.463 19.29 142.063 19.458C141.671 19.626 141.251 19.71 140.803 19.71Z" fill="#B2BBCC"/>
<path d="M45.1719 37.5898L49.7799 26.3898H51.0599L55.6359 37.5898H53.6519L50.0679 28.5178H50.7399L47.1239 37.5898H45.1719ZM47.4439 35.4298V33.8298H53.3799V35.4298H47.4439ZM61.2703 37.7498C60.6836 37.7498 60.161 37.6271 59.7023 37.3818C59.2436 37.1258 58.881 36.7791 58.6143 36.3418C58.3583 35.9045 58.2303 35.4085 58.2303 34.8538V32.6458C58.2303 32.0911 58.3636 31.5951 58.6303 31.1578C58.897 30.7205 59.2596 30.3791 59.7183 30.1338C60.177 29.8778 60.6943 29.7498 61.2703 29.7498C61.9636 29.7498 62.5876 29.9311 63.1423 30.2938C63.7076 30.6458 64.1503 31.1258 64.4703 31.7338C64.801 32.3311 64.9663 33.0085 64.9663 33.7658C64.9663 34.5125 64.801 35.1898 64.4703 35.7978C64.1503 36.3951 63.7076 36.8698 63.1423 37.2218C62.5876 37.5738 61.9636 37.7498 61.2703 37.7498ZM60.9823 36.0858C61.409 36.0858 61.7823 35.9898 62.1023 35.7978C62.433 35.5951 62.689 35.3178 62.8703 34.9658C63.0623 34.6138 63.1583 34.2085 63.1583 33.7498C63.1583 33.2911 63.0623 32.8858 62.8703 32.5338C62.689 32.1818 62.433 31.9098 62.1023 31.7178C61.7823 31.5151 61.409 31.4138 60.9823 31.4138C60.5556 31.4138 60.177 31.5151 59.8463 31.7178C59.5156 31.9098 59.2596 32.1818 59.0783 32.5338C58.897 32.8858 58.8063 33.2911 58.8063 33.7498C58.8063 34.2085 58.897 34.6138 59.0783 34.9658C59.2596 35.3178 59.5156 35.5951 59.8463 35.7978C60.177 35.9898 60.5556 36.0858 60.9823 36.0858ZM57.1583 40.7898V29.9098H58.9183V31.9738L58.6143 33.8458L58.9183 35.7018V40.7898H57.1583ZM70.7116 37.7498C70.1249 37.7498 69.6022 37.6271 69.1436 37.3818C68.6849 37.1258 68.3222 36.7791 68.0556 36.3418C67.7996 35.9045 67.6716 35.4085 67.6716 34.8538V32.6458C67.6716 32.0911 67.8049 31.5951 68.0716 31.1578C68.3382 30.7205 68.7009 30.3791 69.1596 30.1338C69.6182 29.8778 70.1356 29.7498 70.7116 29.7498C71.4049 29.7498 72.0289 29.9311 72.5836 30.2938C73.1489 30.6458 73.5916 31.1258 73.9116 31.7338C74.2422 32.3311 74.4076 33.0085 74.4076 33.7658C74.4076 34.5125 74.2422 35.1898 73.9116 35.7978C73.5916 36.3951 73.1489 36.8698 72.5836 37.2218C72.0289 37.5738 71.4049 37.7498 70.7116 37.7498ZM70.4236 36.0858C70.8502 36.0858 71.2236 35.9898 71.5436 35.7978C71.8742 35.5951 72.1302 35.3178 72.3116 34.9658C72.5036 34.6138 72.5996 34.2085 72.5996 33.7498C72.5996 33.2911 72.5036 32.8858 72.3116 32.5338C72.1302 32.1818 71.8742 31.9098 71.5436 31.7178C71.2236 31.5151 70.8502 31.4138 70.4236 31.4138C69.9969 31.4138 69.6182 31.5151 69.2876 31.7178C68.9569 31.9098 68.7009 32.1818 68.5196 32.5338C68.3382 32.8858 68.2476 33.2911 68.2476 33.7498C68.2476 34.2085 68.3382 34.6138 68.5196 34.9658C68.7009 35.3178 68.9569 35.5951 69.2876 35.7978C69.6182 35.9898 69.9969 36.0858 70.4236 36.0858ZM66.5996 40.7898V29.9098H68.3596V31.9738L68.0556 33.8458L68.3596 35.7018V40.7898H66.5996ZM76.0408 37.5898V26.0698H77.8008V37.5898H76.0408ZM83.4876 37.7498C82.7196 37.7498 82.0262 37.5791 81.4076 37.2378C80.7996 36.8858 80.3142 36.4058 79.9516 35.7978C79.5996 35.1898 79.4236 34.5071 79.4236 33.7498C79.4236 32.9925 79.5996 32.3151 79.9516 31.7178C80.3036 31.1098 80.7782 30.6298 81.3756 30.2778C81.9836 29.9258 82.6556 29.7498 83.3916 29.7498C84.1062 29.7498 84.7356 29.9151 85.2796 30.2458C85.8342 30.5765 86.2662 31.0298 86.5756 31.6058C86.8956 32.1818 87.0556 32.8378 87.0556 33.5738C87.0556 33.7018 87.0449 33.8351 87.0236 33.9738C87.0129 34.1018 86.9916 34.2458 86.9596 34.4058H80.6556V32.9658H86.0476L85.3916 33.5418C85.3702 33.0725 85.2796 32.6778 85.1196 32.3578C84.9596 32.0378 84.7302 31.7925 84.4316 31.6218C84.1436 31.4511 83.7862 31.3658 83.3596 31.3658C82.9116 31.3658 82.5222 31.4618 82.1916 31.6538C81.8609 31.8458 81.6049 32.1178 81.4236 32.4698C81.2422 32.8111 81.1516 33.2218 81.1516 33.7018C81.1516 34.1818 81.2476 34.6031 81.4396 34.9658C81.6316 35.3285 81.9036 35.6111 82.2556 35.8138C82.6076 36.0058 83.0129 36.1018 83.4716 36.1018C83.8662 36.1018 84.2289 36.0325 84.5596 35.8938C84.9009 35.7551 85.1889 35.5525 85.4236 35.2858L86.5436 36.4218C86.1702 36.8591 85.7169 37.1898 85.1836 37.4138C84.6502 37.6378 84.0849 37.7498 83.4876 37.7498ZM95.3496 37.7498C94.4642 37.7498 93.7122 37.5898 93.0936 37.2698C92.4749 36.9498 91.9202 36.4805 91.4296 35.8618L92.6776 34.6138C92.9869 35.0618 93.3549 35.4138 93.7816 35.6698C94.2082 35.9151 94.7522 36.0378 95.4136 36.0378C96.0322 36.0378 96.5229 35.9098 96.8856 35.6538C97.2589 35.3978 97.4456 35.0458 97.4456 34.5978C97.4456 34.2245 97.3496 33.9205 97.1576 33.6858C96.9656 33.4511 96.7096 33.2591 96.3896 33.1098C96.0802 32.9498 95.7336 32.8111 95.3496 32.6938C94.9762 32.5658 94.5976 32.4271 94.2136 32.2778C93.8402 32.1178 93.4936 31.9205 93.1736 31.6858C92.8642 31.4511 92.6136 31.1471 92.4216 30.7738C92.2296 30.4005 92.1336 29.9258 92.1336 29.3498C92.1336 28.6885 92.2936 28.1285 92.6136 27.6698C92.9442 27.2005 93.3869 26.8431 93.9416 26.5978C94.4962 26.3525 95.1149 26.2298 95.7976 26.2298C96.5336 26.2298 97.1896 26.3738 97.7656 26.6618C98.3522 26.9498 98.8269 27.3178 99.1896 27.7658L97.9416 29.0138C97.6216 28.6511 97.2856 28.3845 96.9336 28.2138C96.5922 28.0325 96.1976 27.9418 95.7496 27.9418C95.1949 27.9418 94.7576 28.0538 94.4376 28.2778C94.1282 28.5018 93.9736 28.8165 93.9736 29.2218C93.9736 29.5631 94.0696 29.8405 94.2616 30.0538C94.4536 30.2565 94.7042 30.4325 95.0136 30.5818C95.3336 30.7205 95.6802 30.8538 96.0536 30.9818C96.4376 31.1098 96.8162 31.2538 97.1896 31.4138C97.5736 31.5738 97.9202 31.7818 98.2296 32.0378C98.5496 32.2831 98.8056 32.6031 98.9976 32.9978C99.1896 33.3925 99.2856 33.8885 99.2856 34.4858C99.2856 35.4885 98.9282 36.2831 98.2136 36.8698C97.5096 37.4565 96.5549 37.7498 95.3496 37.7498ZM102.208 37.5898V26.7098H103.968V37.5898H102.208ZM100.368 31.5098V29.9098H105.808V31.5098H100.368ZM110.548 37.7498C109.802 37.7498 109.124 37.5738 108.516 37.2218C107.908 36.8591 107.423 36.3738 107.06 35.7658C106.708 35.1578 106.532 34.4805 106.532 33.7338C106.532 32.9871 106.708 32.3151 107.06 31.7178C107.423 31.1205 107.908 30.6458 108.516 30.2938C109.124 29.9311 109.802 29.7498 110.548 29.7498C111.306 29.7498 111.988 29.9258 112.596 30.2778C113.204 30.6298 113.684 31.1098 114.036 31.7178C114.399 32.3151 114.58 32.9871 114.58 33.7338C114.58 34.4805 114.399 35.1578 114.036 35.7658C113.684 36.3738 113.204 36.8591 112.596 37.2218C111.988 37.5738 111.306 37.7498 110.548 37.7498ZM110.548 36.0538C110.986 36.0538 111.37 35.9578 111.7 35.7658C112.042 35.5631 112.303 35.2858 112.484 34.9338C112.676 34.5818 112.772 34.1818 112.772 33.7338C112.772 33.2858 112.676 32.8911 112.484 32.5498C112.292 32.2085 112.031 31.9418 111.7 31.7498C111.37 31.5471 110.986 31.4458 110.548 31.4458C110.122 31.4458 109.738 31.5471 109.396 31.7498C109.066 31.9418 108.804 32.2085 108.612 32.5498C108.431 32.8911 108.34 33.2858 108.34 33.7338C108.34 34.1818 108.431 34.5818 108.612 34.9338C108.804 35.2858 109.066 35.5631 109.396 35.7658C109.738 35.9578 110.122 36.0538 110.548 36.0538ZM116.204 37.5898V29.9098H117.964V37.5898H116.204ZM117.964 33.3178L117.356 33.0138C117.356 32.0431 117.569 31.2591 117.996 30.6618C118.433 30.0538 119.089 29.7498 119.964 29.7498C120.348 29.7498 120.695 29.8191 121.004 29.9578C121.313 30.0965 121.601 30.3205 121.868 30.6298L120.716 31.8138C120.577 31.6645 120.423 31.5578 120.252 31.4938C120.081 31.4298 119.884 31.3978 119.66 31.3978C119.169 31.3978 118.764 31.5525 118.444 31.8618C118.124 32.1711 117.964 32.6565 117.964 33.3178ZM126.213 37.7498C125.445 37.7498 124.752 37.5791 124.133 37.2378C123.525 36.8858 123.04 36.4058 122.677 35.7978C122.325 35.1898 122.149 34.5071 122.149 33.7498C122.149 32.9925 122.325 32.3151 122.677 31.7178C123.029 31.1098 123.504 30.6298 124.101 30.2778C124.709 29.9258 125.381 29.7498 126.117 29.7498C126.832 29.7498 127.461 29.9151 128.005 30.2458C128.56 30.5765 128.992 31.0298 129.301 31.6058C129.621 32.1818 129.781 32.8378 129.781 33.5738C129.781 33.7018 129.771 33.8351 129.749 33.9738C129.739 34.1018 129.717 34.2458 129.685 34.4058H123.381V32.9658H128.773L128.117 33.5418C128.096 33.0725 128.005 32.6778 127.845 32.3578C127.685 32.0378 127.456 31.7925 127.157 31.6218C126.869 31.4511 126.512 31.3658 126.085 31.3658C125.637 31.3658 125.248 31.4618 124.917 31.6538C124.587 31.8458 124.331 32.1178 124.149 32.4698C123.968 32.8111 123.877 33.2218 123.877 33.7018C123.877 34.1818 123.973 34.6031 124.165 34.9658C124.357 35.3285 124.629 35.6111 124.981 35.8138C125.333 36.0058 125.739 36.1018 126.197 36.1018C126.592 36.1018 126.955 36.0325 127.285 35.8938C127.627 35.7551 127.915 35.5525 128.149 35.2858L129.269 36.4218C128.896 36.8591 128.443 37.1898 127.909 37.4138C127.376 37.6378 126.811 37.7498 126.213 37.7498Z" fill="white"/>
</g>
</g>
</g>
<defs>
<clipPath id="clip0_8513_2531">
<rect y="0.589844" width="161" height="51" rx="4" fill="white"/>
</clipPath>
<clipPath id="clip1_8513_2531">
<rect width="161" height="51" fill="white" transform="translate(0 0.589844)"/>
</clipPath>
<clipPath id="clip2_8513_2531">
<rect width="161" height="51" fill="white" transform="translate(0 0.589844)"/>
</clipPath>
</defs>
</svg>
