<svg width="16" height="16" viewBox="0 0 16 16" fill="none" xmlns="http://www.w3.org/2000/svg">
<g clip-path="url(#clip0_8513_2514)">
<path d="M16 1.91866C15.405 2.20504 14.771 2.39487 14.11 2.48704C14.79 2.04155 15.309 1.3415 15.553 0.497711C14.919 0.912475 14.219 1.20544 13.473 1.36893C12.871 0.665591 12.013 0.22998 11.077 0.22998C9.261 0.22998 7.799 1.84734 7.799 3.83008C7.799 4.11537 7.821 4.38968 7.875 4.65083C5.148 4.50489 2.735 3.07078 1.114 0.88614C0.831 1.42489 0.665 2.04155 0.665 2.70539C0.665 3.95188 1.25 5.05681 2.122 5.69651C1.595 5.68554 1.078 5.51766 0.64 5.25322C0.64 5.26419 0.64 5.27846 0.64 5.29272C0.64 7.04175 1.777 8.49452 3.268 8.82918C3.001 8.90928 2.71 8.94769 2.408 8.94769C2.198 8.94769 1.986 8.93452 1.787 8.88624C2.212 10.3116 3.418 11.3595 4.852 11.3935C3.736 12.3514 2.319 12.9286 0.785 12.9286C0.516 12.9286 0.258 12.9154 0 12.8792C1.453 13.9073 3.175 14.4943 5.032 14.4943C11.068 14.4943 14.368 9.00804 14.368 4.25252C14.368 4.09342 14.363 3.93981 14.356 3.78729C15.007 3.28035 15.554 2.64724 16 1.91866Z" fill="#B2BBCC"/>
</g>
<defs>
<clipPath id="clip0_8513_2514">
<rect width="16" height="15" fill="white" transform="translate(0 0.22998)"/>
</clipPath>
</defs>
</svg>
