<svg width="15" height="16" viewBox="0 0 15 16" fill="none" xmlns="http://www.w3.org/2000/svg">
<g clip-path="url(#clip0_8513_2516)">
<path d="M7.50187 0.22998H7.49813C3.36281 0.22998 0 3.59373 0 7.72998C0 9.3706 0.52875 10.8913 1.42781 12.1259L0.493125 14.9122L3.37594 13.9906C4.56187 14.7763 5.97656 15.23 7.50187 15.23C11.6372 15.23 15 11.8653 15 7.72998C15 3.59467 11.6372 0.22998 7.50187 0.22998ZM11.8659 10.8209C11.685 11.3319 10.9669 11.7556 10.3941 11.8794C10.0022 11.9628 9.49031 12.0294 7.76719 11.315C5.56312 10.4019 4.14375 8.16217 4.03312 8.01685C3.92719 7.87154 3.1425 6.83092 3.1425 5.75467C3.1425 4.67842 3.68906 4.15436 3.90938 3.92936C4.09031 3.74467 4.38937 3.66029 4.67625 3.66029C4.76906 3.66029 4.8525 3.66498 4.9275 3.66873C5.14781 3.6781 5.25844 3.69123 5.40375 4.03904C5.58469 4.47498 6.02531 5.55123 6.07781 5.66186C6.13125 5.77248 6.18469 5.92248 6.10969 6.06779C6.03938 6.21779 5.9775 6.28435 5.86687 6.41185C5.75625 6.53935 5.65125 6.63686 5.54062 6.77373C5.43937 6.89279 5.325 7.02029 5.4525 7.24061C5.58 7.45623 6.02063 8.17529 6.66937 8.75279C7.50656 9.4981 8.18531 9.73623 8.42812 9.83748C8.60906 9.91248 8.82469 9.89467 8.95687 9.75404C9.12469 9.57311 9.33187 9.27311 9.54281 8.97779C9.69281 8.76592 9.88219 8.73967 10.0809 8.81467C10.2834 8.88498 11.355 9.41467 11.5753 9.52435C11.7956 9.63498 11.9409 9.68748 11.9944 9.78029C12.0469 9.87311 12.0469 10.3091 11.8659 10.8209Z" fill="#B2BBCC"/>
</g>
<defs>
<clipPath id="clip0_8513_2516">
<rect width="15" height="15" fill="white" transform="translate(0 0.22998)"/>
</clipPath>
</defs>
</svg>
