<svg width="20" height="20" viewBox="0 0 20 20" fill="none" xmlns="http://www.w3.org/2000/svg">
<g clip-path="url(#clip0_10525_437)">
<path d="M15.8823 9.8347C15.8398 9.79218 15.8186 9.74966 15.8186 9.70713L15.691 9.57957L10.9072 4.79573C10.7796 4.62563 10.6095 4.54059 10.3969 4.54059C10.1843 4.54059 9.99291 4.62563 9.82282 4.79573C9.65273 4.96582 9.56768 5.15717 9.56768 5.36979C9.56768 5.5824 9.65273 5.77376 9.82282 5.94385L13.2672 9.32443H0.829199C0.574061 9.32443 0.372076 9.39884 0.223246 9.54767C0.0744153 9.6965 0 9.89849 0 10.1536C0 10.4088 0.0744153 10.6001 0.223246 10.7277C0.372076 10.8553 0.574061 10.919 0.829199 10.919H13.2672L9.82282 14.3634C9.65273 14.5335 9.56768 14.7249 9.56768 14.9375C9.56768 15.1501 9.6421 15.3308 9.79093 15.4796C9.93976 15.6285 10.1311 15.7029 10.365 15.7029C10.5989 15.7029 10.7796 15.6391 10.9072 15.5115L15.691 10.7277C15.8186 10.6001 15.8823 10.5151 15.8823 10.4725C15.9249 10.2599 15.9249 10.0473 15.8823 9.8347Z" fill="#161439"/>
</g>
<defs>
<clipPath id="clip0_10525_437">
<rect width="19.1354" height="19.1354" fill="white" transform="matrix(1 0 0 -1 0 19.7212)"/>
</clipPath>
</defs>
</svg>
