<svg width="124" height="41" viewBox="0 0 124 41" fill="none" xmlns="http://www.w3.org/2000/svg">
<path d="M16.4609 19.2194V14.9225H30.6797C30.8427 15.7984 30.9212 16.6879 30.9141 17.5787C30.9141 20.7037 30.0547 24.6881 27.2422 27.4225C24.5078 30.3131 21.0703 31.7975 16.3828 31.7975C7.86719 31.7975 0.679688 24.8444 0.679688 16.3287C0.679688 7.81311 7.86719 0.78186 16.3828 0.78186C21.1484 0.78186 24.5078 2.65686 27.0859 5.07874L24.0391 8.04749C22.452 6.53283 20.4514 5.52274 18.2903 5.14493C16.1292 4.76712 13.9047 5.03855 11.8978 5.92491C9.89097 6.81127 8.19199 8.27275 7.01566 10.1246C5.83933 11.9764 5.23848 14.1355 5.28906 16.3287C5.28906 22.5787 10.2109 27.5787 16.3828 27.5787C20.4453 27.5787 22.7891 25.9381 24.2734 24.4537C25.4453 23.2819 26.2266 21.5631 26.5391 19.2194H16.4609Z" fill="#4285F4"/>
<path d="M52.5547 21.7975C52.5547 27.5787 48.0234 31.7975 42.4766 31.7975C36.9297 31.7975 32.4766 27.5787 32.4766 21.7975C32.4766 16.0162 37.0078 11.7975 42.4766 11.7975C47.9453 11.7975 52.5547 16.0162 52.5547 21.7975ZM48.1016 21.7975C48.1016 18.2037 45.5234 15.7819 42.4766 15.7819C39.4297 15.7819 36.8516 18.2037 36.8516 21.7975C36.8516 25.3912 39.5078 27.8912 42.4766 27.8912C45.4453 27.8912 48.1016 25.3912 48.1016 21.7975Z" fill="#EA4335"/>
<path d="M74.4297 21.7975C74.4297 27.5787 69.8984 31.7975 64.3516 31.7975C58.8047 31.7975 54.3516 27.5787 54.3516 21.7975C54.3516 16.0162 58.8828 11.7975 64.3516 11.7975C69.8203 11.7975 74.4297 16.0162 74.4297 21.7975ZM69.9766 21.7975C69.9766 18.2037 67.3984 15.7819 64.3516 15.7819C61.3047 15.7819 58.7266 18.2037 58.7266 21.7975C58.7266 25.3912 61.3828 27.8912 64.3516 27.8912C67.3203 27.8912 69.9766 25.3912 69.9766 21.7975Z" fill="#FBBC04"/>
<path d="M95.3672 12.4225V30.3912C95.3672 37.735 90.9922 40.7819 85.8359 40.7819C80.9922 40.7819 78.1016 37.5006 77.0078 34.8444L80.8359 33.2819C81.5391 34.9225 83.1797 36.8756 85.8359 36.8756C89.1953 36.8756 91.2266 34.7662 91.2266 31.0162V29.5319H91.0703C90.4055 30.2764 89.5848 30.8654 88.6667 31.257C87.7485 31.6486 86.7554 31.8331 85.7578 31.7975C80.8359 31.7975 76.2266 27.4225 76.2266 21.8756C76.2266 16.2506 80.8359 11.7975 85.7578 11.7975C88.1797 11.7975 90.0547 12.8912 91.0703 14.0631H91.2266V12.4225H95.3672ZM91.5391 21.8756C91.5391 18.36 89.1953 15.7819 86.1484 15.7819C83.1797 15.7819 80.6016 18.36 80.6016 21.8756C80.6016 25.3131 83.1797 27.8912 86.1484 27.8912C89.1953 27.8912 91.5391 25.3131 91.5391 21.8756Z" fill="#4285F4"/>
<path d="M98.4141 1.95374H102.789V31.2506H98.4141V1.95374Z" fill="#34A853"/>
<path d="M119.742 25.0787L123.18 27.4225C122.086 28.985 119.43 31.7975 114.82 31.7975C109.117 31.7975 104.898 27.4225 104.898 21.7975C104.898 15.86 109.195 11.7975 114.352 11.7975C119.508 11.7975 122.086 15.9381 122.867 18.2037L123.336 19.2975L109.977 24.8444C110.992 26.8756 112.555 27.8912 114.82 27.8912C117.086 27.8912 118.57 26.7975 119.742 25.0787ZM109.273 21.485L118.18 17.8131C117.711 16.5631 116.227 15.7037 114.508 15.7037C112.242 15.7037 109.117 17.6569 109.273 21.485Z" fill="#EA4335"/>
</svg>
