<svg width="257" height="231" viewBox="0 0 257 231" fill="none" xmlns="http://www.w3.org/2000/svg">
<g clip-path="url(#clip0_10551_1279)">
<g clip-path="url(#clip1_10551_1279)">
<g clip-path="url(#clip2_10551_1279)">
<path d="M125.142 -42.2868C147.518 -65.277 171.027 -73.1499 191.056 -74.9371C219.793 -77.4972 245.959 -68.3555 253.549 -36.8708C254.983 -30.9082 255.678 -23.7741 253.094 -15.2733C249.06 -2.01017 238.531 10.1871 228.915 19.2722C204.961 41.9127 180.371 56.4816 156.471 69.1958C134.211 81.0402 112.158 91.5861 90.3134 100.834C73.2671 108.066 56.0405 114.517 41.522 113.605C39.4461 113.471 37.2609 112.995 36.9748 110.307C36.8613 108.516 37.3766 106.279 38.414 104.057C42.5532 94.7514 50.8308 89.4109 57.3301 86.7638C90.0426 73.5539 115.649 84.4295 134.179 103.696C140.126 109.89 145.692 117.799 144.401 131.357C142.682 149.565 128.506 172.55 113.939 186.157C99.3714 199.765 84.6025 205.923 70.6447 210.782C35.4394 222.991 1.82414 229.176 -29.4766 229.201" stroke="#E1DAF1" stroke-width="3" stroke-miterlimit="10"/>
</g>
</g>
</g>
<defs>
<clipPath id="clip0_10551_1279">
<rect width="257" height="231" fill="white"/>
</clipPath>
<clipPath id="clip1_10551_1279">
<rect width="257" height="231" fill="white"/>
</clipPath>
<clipPath id="clip2_10551_1279">
<rect width="257" height="231" fill="white"/>
</clipPath>
</defs>
</svg>
