<svg width="78" height="78" viewBox="0 0 78 78" fill="none" xmlns="http://www.w3.org/2000/svg">
<rect x="0.703125" y="0.317383" width="76.9884" height="76.9884" rx="38.4942" fill="#1BCBE3"/>
<g clip-path="url(#clip0_8520_3851)">
<path d="M54.2629 30.5641C54.2629 30.5641 41.8449 25.063 41.8416 25.0616C41.003 24.6981 40.1139 24.5138 39.1989 24.5138C38.284 24.5138 37.3949 24.6981 36.5562 25.0616C36.5529 25.063 24.1349 30.5641 24.1349 30.5641C22.5958 31.2338 21.6016 32.7868 21.6016 34.5223C21.6016 36.2577 22.5958 37.8108 24.1349 38.4805L27.1007 39.7942V48.8201C27.1007 51.1853 28.9509 53.1095 31.2251 53.1095H47.1727C49.4468 53.1095 51.2971 51.1853 51.2971 48.8201V45.0076C51.2971 44.2179 50.6816 43.5778 49.9223 43.5778C49.163 43.5778 48.5475 44.2179 48.5475 45.0076V48.8201C48.5475 49.6085 47.9308 50.2499 47.1727 50.2499H31.2251C30.4671 50.2499 29.8503 49.6085 29.8503 48.8201V41.0124C29.8503 41.0124 36.5529 43.9816 36.5562 43.9831C37.3949 44.3465 38.284 44.5308 39.1989 44.5308C40.1138 44.5308 41.0029 44.3465 41.8416 43.9831C41.8449 43.9816 54.2629 38.4805 54.2629 38.4805C55.802 37.8108 56.7963 36.2577 56.7963 34.5223C56.7963 32.7868 55.802 31.2338 54.2629 30.5641ZM53.1999 35.8432C53.1966 35.8446 40.7797 41.3452 40.7797 41.3452C40.2791 41.5616 39.7473 41.6712 39.1988 41.6712C38.6504 41.6712 38.1187 41.5616 37.6181 41.3453C36.3849 40.7989 25.2011 35.8446 25.1978 35.8432C24.6835 35.6203 24.3511 35.1018 24.3511 34.5223C24.3511 33.9428 24.6835 33.4244 25.1979 33.2014C25.2012 33.1999 37.6181 27.6993 37.6181 27.6993C38.1187 27.483 38.6505 27.3734 39.1989 27.3734C39.7473 27.3734 40.2792 27.483 40.7797 27.6993C40.7797 27.6993 53.1966 33.1999 53.1999 33.2014C53.7143 33.4244 54.0467 33.9428 54.0467 34.5223C54.0467 35.1018 53.7143 35.6203 53.1999 35.8432Z" fill="white"/>
<path d="M55.4217 41.1884C54.6623 41.1884 54.0469 41.8285 54.0469 42.6181V48.8201C54.0469 49.6098 54.6623 50.2499 55.4217 50.2499C56.181 50.2499 56.7965 49.6098 56.7965 48.8201V42.6181C56.7965 41.8285 56.181 41.1884 55.4217 41.1884Z" fill="white"/>
</g>
<defs>
<clipPath id="clip0_8520_3851">
<rect width="35.1947" height="28.5957" fill="white" transform="translate(21.6016 24.5138)"/>
</clipPath>
</defs>
</svg>
