<svg width="55" height="42" viewBox="0 0 55 42" fill="none" xmlns="http://www.w3.org/2000/svg">
<g clip-path="url(#clip0_8520_3848)">
<path d="M19.0588 35.3554C18.7834 35.3702 18.5107 35.2919 18.2816 35.1325C18.0525 34.973 17.8797 34.7409 17.7893 34.4713L16.2159 29.7812C15.5383 27.7404 14.3658 25.9112 12.8107 24.4689C11.2556 23.0265 9.36978 22.0188 7.33351 21.5425L2.65229 20.4312C2.38346 20.3672 2.14182 20.2145 1.96388 19.9963C1.78594 19.7781 1.68139 19.5063 1.66603 19.2219C1.65068 18.9375 1.72535 18.6559 1.87875 18.4199C2.03216 18.1839 2.25596 18.006 2.51634 17.9134L7.05066 16.3046C9.02377 15.6116 10.7901 14.4068 12.1808 12.8054C13.5715 11.2038 14.5402 9.25912 14.9942 7.1571L16.0533 2.32479C16.1144 2.04728 16.2612 1.79818 16.4718 1.61511C16.6823 1.43205 16.9451 1.325 17.2203 1.31014C17.4955 1.29527 17.7683 1.37341 17.9974 1.53273C18.2264 1.69204 18.3993 1.92389 18.4898 2.1932L20.0632 6.88336C20.7409 8.92426 21.9133 10.7533 23.4684 12.1957C25.0236 13.6382 26.9093 14.6457 28.9456 15.1222L33.6268 16.2334C33.8956 16.2975 34.1372 16.4501 34.3152 16.6683C34.4931 16.8864 34.5977 17.1583 34.613 17.4427C34.6284 17.7271 34.5537 18.0086 34.4003 18.2447C34.247 18.4807 34.0232 18.6585 33.7627 18.7511L29.2284 20.36C27.2553 21.053 25.489 22.2578 24.0983 23.8593C22.7075 25.4608 21.7389 27.4055 21.285 29.5075L20.2258 34.3398C20.1649 34.6175 20.0181 34.8668 19.8076 35.0501C19.597 35.2333 19.3342 35.3404 19.0588 35.3554ZM7.54523 18.9044L7.88863 18.9874C10.3461 19.5625 12.6219 20.7786 14.4987 22.5194C16.3755 24.2603 17.7905 26.4676 18.6086 28.9306L18.7254 29.2745L18.8045 28.92C19.3525 26.3833 20.5216 24.0363 22.2 22.1035C23.8784 20.1707 26.01 18.7167 28.3913 17.8802L28.7237 17.7608L28.3804 17.6777C25.9229 17.1026 23.647 15.8866 21.7703 14.1457C19.8935 12.4049 18.4784 10.1976 17.6605 7.73455L17.5484 7.38688L17.4693 7.74136C16.9213 10.2782 15.7523 12.6251 14.0738 14.5578C12.3955 16.4907 10.2638 17.9447 7.88257 18.7811L7.54523 18.9044Z" fill="#27272F" fill-opacity="0.2"/>
<path d="M45.2454 40.0565C45.0891 40.065 44.9341 40.0205 44.804 39.9299C44.6739 39.8394 44.5758 39.7075 44.5244 39.5545L43.6309 36.8911C43.2461 35.732 42.5804 34.6934 41.6972 33.8742C40.8141 33.055 39.7431 32.4829 38.5867 32.2124L35.9284 31.5813C35.7758 31.545 35.6385 31.4582 35.5375 31.3344C35.4364 31.2104 35.3771 31.0561 35.3683 30.8945C35.3596 30.7331 35.4021 30.5732 35.4892 30.4391C35.5763 30.3051 35.7033 30.2042 35.8512 30.1516L38.4262 29.2379C39.5467 28.8443 40.5497 28.1601 41.3395 27.2507C42.1293 26.3412 42.6793 25.2369 42.9371 24.0432L43.5386 21.299C43.5733 21.1414 43.6567 21 43.7763 20.8959C43.8959 20.792 44.045 20.7312 44.2014 20.7228C44.3577 20.7144 44.5125 20.7587 44.6427 20.8492C44.7727 20.9397 44.8709 21.0714 44.9222 21.2242L45.8157 23.8877C46.2007 25.0467 46.8664 26.0854 47.7496 26.9046C48.6326 27.7237 49.7035 28.2958 50.8599 28.5664L53.5183 29.1975C53.671 29.2339 53.8082 29.3206 53.9093 29.4444C54.0103 29.5684 54.0697 29.7227 54.0784 29.8842C54.0872 30.0457 54.0447 30.2056 53.9576 30.3397C53.8705 30.4736 53.7433 30.5746 53.5955 30.6273L51.0206 31.5409C49.9001 31.9344 48.897 32.6186 48.1072 33.5281C47.3175 34.4375 46.7674 35.5419 46.5096 36.7356L45.9081 39.4797C45.8736 39.6374 45.7902 39.779 45.6706 39.8832C45.551 39.9872 45.4018 40.048 45.2454 40.0565ZM38.7071 30.7143L38.9021 30.7615C40.2975 31.088 41.59 31.7786 42.6558 32.7671C43.7215 33.7558 44.5252 35.0092 44.9897 36.408L45.0561 36.6032L45.101 36.402C45.4122 34.9614 46.0761 33.6286 47.0292 32.531C47.9824 31.4333 49.1929 30.6077 50.5451 30.1327L50.734 30.0648L50.539 30.0176C49.1434 29.6911 47.851 29.0005 46.7851 28.0119C45.7194 27.0233 44.9159 25.7699 44.4513 24.3711L44.3877 24.1737L44.3427 24.3749C44.0316 25.8156 43.3676 27.1484 42.4145 28.2459C41.4614 29.3435 40.2509 30.1693 38.8987 30.6443L38.7071 30.7143Z" fill="#27272F" fill-opacity="0.2"/>
</g>
<defs>
<clipPath id="clip0_8520_3848">
<rect width="53.8919" height="40.6939" fill="white" transform="translate(0.75 0.420532)"/>
</clipPath>
</defs>
</svg>
