<svg width="78" height="78" viewBox="0 0 78 78" fill="none" xmlns="http://www.w3.org/2000/svg">
<rect x="0.546875" y="0.317383" width="76.9884" height="76.9884" rx="38.4942" fill="#FFC224"/>
<g clip-path="url(#clip0_8520_3870)">
<path d="M57.6417 19.5646H20.4306C20.0763 19.5646 19.7891 19.8573 19.7891 20.2183V46.3675C19.7891 46.7286 20.0763 47.0213 20.4306 47.0213H32.0155C32.0347 47.2389 32.0662 47.4534 32.104 47.6659L28.585 51.9393C28.3571 52.2157 28.3923 52.6281 28.6636 52.8603C28.74 52.9258 28.8305 52.9722 28.9276 52.9957L32.8014 53.9384L34.3854 57.6647C34.5263 57.996 34.904 58.1483 35.2291 58.0048C35.3207 57.9644 35.4017 57.9028 35.4658 57.8249L38.9791 53.5586C38.9983 53.5586 39.0169 53.5586 39.0362 53.5586C39.0554 53.5586 39.074 53.5586 39.0933 53.5586L42.6065 57.8249C42.8341 58.1016 43.2388 58.1379 43.5103 57.9059C43.5867 57.8406 43.6472 57.758 43.6869 57.6647L45.2709 53.9384L49.1448 52.9957C49.4894 52.912 49.7024 52.5595 49.6202 52.2083C49.597 52.1093 49.5516 52.0172 49.4874 51.9393L45.9683 47.6659C46.0062 47.4534 46.0376 47.2389 46.0569 47.0213H57.6417C57.996 47.0213 58.2833 46.7286 58.2833 46.3675V20.2183C58.2833 19.8572 57.996 19.5646 57.6417 19.5646ZM35.1502 56.1736L33.851 53.1206C33.7707 52.9318 33.6079 52.7926 33.4115 52.7447L30.2358 51.9713L32.539 49.174C32.5512 49.2028 32.5673 49.229 32.5794 49.2577C32.6628 49.4538 32.7533 49.6401 32.8533 49.8251C32.8944 49.9023 32.938 49.9781 32.9817 50.0533C33.0698 50.2028 33.1629 50.3492 33.2614 50.4926C33.33 50.5927 33.4019 50.6887 33.4756 50.7868C33.5616 50.8979 33.6502 51.0064 33.7432 51.1137C33.8363 51.2209 33.9447 51.3391 34.0518 51.4477C34.1307 51.5281 34.2122 51.6059 34.2956 51.6824C34.365 51.7477 34.4271 51.8163 34.4996 51.8785C34.5722 51.9406 34.6401 51.9824 34.7094 52.0374C34.7409 52.0622 34.7678 52.091 34.7998 52.1152C34.8576 52.1596 34.9186 52.1982 34.9776 52.2407C35.0699 52.3061 35.1611 52.3766 35.2567 52.4368C35.4388 52.5558 35.6269 52.6643 35.8174 52.7636C35.8905 52.8016 35.965 52.8362 36.0393 52.8715C36.2105 52.9535 36.3826 53.028 36.5558 53.0951C36.6059 53.114 36.6554 53.1356 36.7054 53.1533C36.9484 53.2403 37.196 53.3134 37.447 53.3723L37.4541 53.3743L35.1502 56.1736ZM40.241 52.1125C39.9468 52.1759 39.6482 52.2159 39.348 52.2322H39.3396C39.2383 52.2374 39.1369 52.2446 39.0349 52.2446C38.9329 52.2446 38.8315 52.2374 38.7302 52.2322H38.7218C38.4221 52.2158 38.1243 52.176 37.8306 52.1132L37.7768 52.1021C37.6626 52.0766 37.5496 52.0452 37.438 52.0126C37.3911 51.9988 37.3437 51.9864 37.2976 51.9713C37.2173 51.9458 37.1384 51.9158 37.0594 51.887C36.9806 51.8582 36.9055 51.8301 36.8298 51.7981C36.7829 51.7779 36.7367 51.7563 36.6906 51.7328C36.5854 51.6844 36.4808 51.6353 36.3788 51.5811L36.3275 51.5523C36.063 51.4082 35.8099 51.2433 35.5704 51.0594C35.437 50.958 35.3138 50.8463 35.1925 50.7358C35.0492 50.6054 34.9122 50.4677 34.7826 50.3233C34.7312 50.267 34.6761 50.2134 34.6273 50.1553C34.4481 49.9405 34.2847 49.7126 34.1384 49.4735C34.1166 49.4382 34.098 49.4009 34.0743 49.3643C33.9379 49.132 33.8178 48.8901 33.715 48.6406C33.706 48.6184 33.6957 48.5961 33.6873 48.5752C33.5737 48.2892 33.4823 47.9946 33.4141 47.6939C33.4141 47.6822 33.4051 47.6731 33.4019 47.6613C33.3087 47.2366 33.2618 46.8026 33.262 46.3675C33.2602 43.1181 35.8437 40.4824 39.0327 40.4804C42.2216 40.4784 44.8083 43.111 44.8103 46.3604C44.8105 46.8004 44.7624 47.2393 44.6666 47.6684C44.6634 47.6795 44.657 47.6893 44.6543 47.7004C44.5863 48.0007 44.4951 48.2951 44.3817 48.581C44.3728 48.6038 44.3625 48.6267 44.3529 48.6464C44.2504 48.8944 44.1307 49.1347 43.9949 49.3655C43.9737 49.4021 43.9544 49.4407 43.9308 49.4772C43.7844 49.7161 43.6213 49.9438 43.4424 50.1585C43.3944 50.216 43.3398 50.2683 43.2891 50.3245C43.1577 50.4703 43.0191 50.6093 42.874 50.7409C42.7522 50.8515 42.6309 50.9632 42.4981 51.0638C42.3653 51.1646 42.2466 51.2495 42.117 51.3338L42.1093 51.3385C41.9932 51.4136 41.8745 51.4829 41.7539 51.5483C41.7301 51.5614 41.707 51.575 41.6833 51.5875C41.5864 51.6392 41.4908 51.6856 41.3888 51.7307C41.3375 51.7542 41.2868 51.7784 41.2349 51.8C41.1629 51.8308 41.0899 51.8575 41.0168 51.8843C40.9436 51.9112 40.8531 51.9458 40.7697 51.9719C40.7254 51.9863 40.6805 51.9987 40.6356 52.0118C40.522 52.0445 40.4079 52.0771 40.2924 52.102L40.241 52.1125ZM47.8366 51.9693L44.6608 52.7427C44.4644 52.7906 44.3016 52.9298 44.2213 53.1187L42.9221 56.1736L40.6183 53.3762H40.624C40.8761 53.3175 41.1245 53.2443 41.3683 53.1566C41.4164 53.1396 41.4626 53.1193 41.5107 53.1016C41.6897 53.0323 41.8662 52.9565 42.0394 52.8722C42.11 52.8389 42.1805 52.8069 42.2498 52.7702C42.4422 52.6682 42.6347 52.5577 42.8195 52.4368C42.9087 52.3792 42.994 52.3146 43.0806 52.2524C43.1448 52.2073 43.2089 52.1662 43.2731 52.1185C43.3071 52.0923 43.3373 52.0615 43.3706 52.0348C43.4347 51.9811 43.5092 51.936 43.5746 51.8798C43.6401 51.8236 43.7068 51.749 43.7748 51.6877C43.8595 51.6091 43.9429 51.5301 44.0237 51.4483C44.1294 51.3408 44.2316 51.23 44.3304 51.1163C44.4234 51.0091 44.5119 50.9005 44.5986 50.7894C44.6724 50.6933 44.7442 50.5932 44.8128 50.4952C44.9117 50.3527 45.0053 50.2063 45.092 50.0572C45.1368 49.9814 45.1805 49.9049 45.2202 49.8271C45.32 49.6427 45.4108 49.4542 45.493 49.2617C45.5045 49.2283 45.5211 49.2015 45.5333 49.172L47.8366 51.9693ZM57.0001 45.7138H46.0607C45.7126 41.7603 42.285 38.843 38.4051 39.1978C35.0077 39.5085 32.3152 42.252 32.0103 45.7138H21.0722V20.872H57.0001V45.7138Z" fill="white"/>
<path d="M23.001 22.1794C22.6466 22.1794 22.3594 22.4722 22.3594 22.8332V25.4481H23.6425V23.4869H25.5672V22.1794H23.001Z" fill="white"/>
<path d="M55.0819 22.1794H52.5156V23.4869H54.4403V25.4481H55.7235V22.8332C55.7235 22.4721 55.4362 22.1794 55.0819 22.1794Z" fill="white"/>
<path d="M54.4403 41.1376V43.0988H52.5156V44.4062H55.0819C55.4362 44.4062 55.7235 44.1135 55.7235 43.7524V41.1376H54.4403Z" fill="white"/>
<path d="M23.6425 43.0988V41.1376H22.3594V43.7524C22.3594 44.1135 22.6466 44.4062 23.001 44.4062H25.5672V43.0988H23.6425Z" fill="white"/>
<path d="M46.7336 26.7555H31.3359V28.063H46.7336V26.7555Z" fill="white"/>
<path d="M50.5887 30.6779H27.4922V31.9853H50.5887V30.6779Z" fill="white"/>
<path d="M39.0378 41.7914C36.5575 41.7914 34.5469 43.8402 34.5469 46.3675C34.5496 48.8936 36.5587 50.9407 39.0378 50.9435C41.5182 50.9435 43.5288 48.8948 43.5288 46.3675C43.5288 43.8402 41.5182 41.7914 39.0378 41.7914ZM39.0378 49.6362C37.2662 49.6362 35.8299 48.1726 35.8299 46.3675C35.832 44.5632 37.2671 43.101 39.0378 43.0989C40.8094 43.0989 42.2457 44.5623 42.2457 46.3675C42.2457 48.1726 40.8094 49.6362 39.0378 49.6362Z" fill="white"/>
</g>
<defs>
<clipPath id="clip0_8520_3870">
<rect width="38.4942" height="38.4942" fill="white" transform="translate(19.7891 19.5646)"/>
</clipPath>
</defs>
</svg>
