<svg width="78" height="78" viewBox="0 0 78 78" fill="none" xmlns="http://www.w3.org/2000/svg">
<rect x="0.625" y="0.317383" width="76.9884" height="76.9884" rx="38.4942" fill="#5751E1"/>
<g clip-path="url(#clip0_8520_3861)">
<path d="M29.7854 48.1602H48.457C51.4964 48.1602 53.969 45.6934 53.969 42.661V26.7134C53.969 23.6811 51.4964 21.2142 48.457 21.2142H29.7854C26.746 21.2142 24.2734 23.6811 24.2734 26.7134V50.9098C24.2734 53.9421 26.746 56.4089 29.7854 56.4089H48.457C51.4964 56.4089 53.969 53.9421 53.969 50.9098C53.969 50.1504 53.3521 49.535 52.591 49.535C51.8299 49.535 51.213 50.1504 51.213 50.9098C51.213 52.4258 49.9766 53.6594 48.457 53.6594H29.7854C28.2658 53.6594 27.0294 52.4258 27.0294 50.9098C27.0294 49.3938 28.2658 48.1602 29.7854 48.1602ZM27.0294 26.7134C27.0294 25.1974 28.2658 23.9638 29.7854 23.9638H48.457C49.9766 23.9638 51.213 25.1974 51.213 26.7134V42.661C51.213 44.177 49.9766 45.4106 48.457 45.4106H29.7854C28.782 45.4106 27.8406 45.6794 27.0294 46.1485V26.7134ZM32.6102 30.4941C32.6102 29.7347 33.2271 29.1193 33.9882 29.1193H44.3231C45.0842 29.1193 45.7011 29.7347 45.7011 30.4941C45.7011 31.2534 45.0842 31.8689 44.3231 31.8689H33.9882C33.2271 31.8689 32.6102 31.2534 32.6102 30.4941Z" fill="white"/>
</g>
<defs>
<clipPath id="clip0_8520_3861">
<rect width="29.6955" height="35.1947" fill="white" transform="translate(24.2734 21.2142)"/>
</clipPath>
</defs>
</svg>
