<svg width="78" height="78" viewBox="0 0 78 78" fill="none" xmlns="http://www.w3.org/2000/svg">
<rect x="0.585938" y="0.317383" width="76.9884" height="76.9884" rx="38.4942" fill="#1BCBE3"/>
<g clip-path="url(#clip0_8520_3851)">
<path d="M54.1457 30.5641C54.1457 30.5641 41.7277 25.063 41.7244 25.0616C40.8858 24.6981 39.9967 24.5138 39.0817 24.5138C38.1668 24.5138 37.2777 24.6981 36.439 25.0616C36.4357 25.063 24.0177 30.5641 24.0177 30.5641C22.4786 31.2338 21.4844 32.7868 21.4844 34.5223C21.4844 36.2577 22.4786 37.8108 24.0177 38.4805L26.9835 39.7942V48.8201C26.9835 51.1853 28.8337 53.1095 31.1079 53.1095H47.0555C49.3297 53.1095 51.1799 51.1853 51.1799 48.8201V45.0076C51.1799 44.2179 50.5644 43.5778 49.8051 43.5778C49.0458 43.5778 48.4303 44.2179 48.4303 45.0076V48.8201C48.4303 49.6085 47.8136 50.2499 47.0555 50.2499H31.1079C30.3499 50.2499 29.7331 49.6085 29.7331 48.8201V41.0124C29.7331 41.0124 36.4357 43.9816 36.439 43.9831C37.2777 44.3465 38.1668 44.5308 39.0817 44.5308C39.9966 44.5308 40.8857 44.3465 41.7244 43.9831C41.7277 43.9816 54.1457 38.4805 54.1457 38.4805C55.6848 37.8108 56.6791 36.2577 56.6791 34.5223C56.6791 32.7868 55.6848 31.2338 54.1457 30.5641ZM53.0827 35.8432C53.0794 35.8446 40.6625 41.3452 40.6625 41.3452C40.1619 41.5616 39.6301 41.6712 39.0816 41.6712C38.5332 41.6712 38.0015 41.5616 37.5009 41.3453C36.2677 40.7989 25.0839 35.8446 25.0806 35.8432C24.5663 35.6203 24.234 35.1018 24.234 34.5223C24.234 33.9428 24.5663 33.4244 25.0807 33.2014C25.084 33.1999 37.5009 27.6993 37.5009 27.6993C38.0015 27.483 38.5334 27.3734 39.0817 27.3734C39.6301 27.3734 40.162 27.483 40.6625 27.6993C40.6625 27.6993 53.0794 33.1999 53.0827 33.2014C53.5971 33.4244 53.9295 33.9428 53.9295 34.5223C53.9295 35.1018 53.5971 35.6203 53.0827 35.8432Z" fill="white"/>
<path d="M55.3045 41.1884C54.5452 41.1884 53.9297 41.8285 53.9297 42.6181V48.8201C53.9297 49.6098 54.5452 50.2499 55.3045 50.2499C56.0638 50.2499 56.6793 49.6098 56.6793 48.8201V42.6181C56.6793 41.8285 56.0638 41.1884 55.3045 41.1884Z" fill="white"/>
</g>
<defs>
<clipPath id="clip0_8520_3851">
<rect width="35.1947" height="28.5957" fill="white" transform="translate(21.4844 24.5138)"/>
</clipPath>
</defs>
</svg>
