<svg width="17" height="17" viewBox="0 0 17 17" fill="none" xmlns="http://www.w3.org/2000/svg">
<path d="M6.87305 13.3767C8.25928 13.3767 9.5376 12.9285 10.5835 12.1814L14.5181 16.116C14.7007 16.2986 14.9414 16.3899 15.1987 16.3899C15.7383 16.3899 16.1201 15.9749 16.1201 15.4436C16.1201 15.1946 16.0371 14.9539 15.8545 14.7795L11.9448 10.8616C12.7666 9.78247 13.2563 8.44604 13.2563 6.99341C13.2563 3.48218 10.3843 0.610107 6.87305 0.610107C3.37012 0.610107 0.489746 3.47388 0.489746 6.99341C0.489746 10.5046 3.36182 13.3767 6.87305 13.3767ZM6.87305 11.9988C4.13379 11.9988 1.86768 9.73267 1.86768 6.99341C1.86768 4.25415 4.13379 1.98804 6.87305 1.98804C9.6123 1.98804 11.8784 4.25415 11.8784 6.99341C11.8784 9.73267 9.6123 11.9988 6.87305 11.9988Z" fill="#5751E1"/>
</svg>
